<?xml version="1.0" encoding="utf-8"?>
<!-- Generator: Adobe Illustrator 27.5.0, SVG Export Plug-In . SVG Version: 6.00 Build 0)  -->
<svg version="1.1" id="Capa_1" xmlns="http://www.w3.org/2000/svg" xmlns:xlink="http://www.w3.org/1999/xlink" x="0px" y="0px"
	 viewBox="0 0 425.2 425.2" style="enable-background:new 0 0 425.2 425.2;" xml:space="preserve">
<rect x="0.002" y="0.002" style="fill:#FFFFFF;" width="425.197" height="425.196"/>
<g>
	<g>
		<path style="fill:#F79234;" d="M285.209,65.68c3.17-3.172,8.31-3.172,11.48-0.002c3.17,3.172,3.17,8.313,0.002,11.484
			c-3.172,3.17-8.313,3.168-11.484-0.002C282.037,73.99,282.037,68.85,285.209,65.68z"/>
		<path style="fill:#8CCA7F;" d="M304.359,71.467c1.586-1.584,4.156-1.584,5.74,0c1.586,1.586,1.586,4.156,0,5.74
			c-1.584,1.586-4.154,1.586-5.74,0C302.775,75.623,302.773,73.053,304.359,71.467z"/>
		<path style="fill:#FBB040;" d="M297.467,55.322c1.586-1.586,4.158-1.586,5.742-0.002c1.586,1.586,1.586,4.158,0,5.744
			c-1.584,1.584-4.156,1.584-5.742-0.002C295.883,59.479,295.883,56.906,297.467,55.322z"/>
	</g>
	<g>
		<path style="fill:#A0CC3A;" d="M53.492,231.659c-4.484,0-8.119-3.633-8.119-8.117c0-4.483,3.635-8.12,8.119-8.12
			s8.119,3.637,8.119,8.12C61.611,228.026,57.977,231.659,53.492,231.659z"/>
		<path style="fill:#8CCA7F;" d="M44.043,214.023c-2.242,0-4.061-1.816-4.061-4.057c0-2.244,1.818-4.061,4.061-4.061
			c2.24,0,4.059,1.816,4.059,4.061C48.102,212.207,46.283,214.023,44.043,214.023z"/>
		<path style="fill:#FBB040;" d="M37.498,230.315c-2.242,0-4.059-1.818-4.059-4.061c0-2.242,1.816-4.061,4.059-4.061
			c2.244,0,4.061,1.818,4.061,4.061C41.559,228.497,39.742,230.315,37.498,230.315z"/>
	</g>
	<g>
		<path style="fill:#A0CC3A;" d="M245.314,131.498c-4.484,0-8.119-3.633-8.119-8.117c0-4.484,3.635-8.121,8.119-8.121
			c4.484,0,8.119,3.637,8.119,8.121C253.434,127.865,249.799,131.498,245.314,131.498z"/>
		<path style="fill:#8CCA7F;" d="M235.865,113.863c-2.242,0-4.059-1.818-4.059-4.059c0-2.242,1.816-4.061,4.059-4.061
			c2.242,0,4.059,1.818,4.059,4.061C239.924,112.045,238.107,113.863,235.865,113.863z"/>
		<path style="fill:#FBB040;" d="M229.322,130.154c-2.242,0-4.061-1.818-4.061-4.061c0-2.242,1.818-4.06,4.061-4.06
			s4.059,1.818,4.059,4.06C233.381,128.336,231.564,130.154,229.322,130.154z"/>
	</g>
	<g>
		<path style="fill:#65BEBD;" d="M364.053,201.355c3.168-3.17,8.311-3.17,11.482,0c3.168,3.172,3.168,8.313,0,11.483
			c-3.172,3.172-8.314,3.172-11.486,0C360.881,209.668,360.881,204.527,364.053,201.355z"/>
		<path style="fill:#8CCA7F;" d="M383.203,207.145c1.586-1.584,4.158-1.586,5.74,0c1.586,1.586,1.586,4.156,0,5.742
			c-1.584,1.584-4.154,1.584-5.74-0.002C381.619,211.301,381.619,208.73,383.203,207.145z"/>
		<path style="fill:#FBB040;" d="M376.313,191.002c1.586-1.586,4.154-1.588,5.742-0.004c1.584,1.586,1.582,4.158-0.004,5.742
			c-1.584,1.586-4.152,1.586-5.738,0C374.727,195.156,374.727,192.586,376.313,191.002z"/>
	</g>
	<g>
		<path style="fill:#65BEBD;" d="M161.676,174.854c3.168-3.17,8.311-3.17,11.482,0c3.168,3.172,3.168,8.313,0,11.482
			c-3.172,3.172-8.314,3.172-11.486,0C158.504,183.166,158.504,178.025,161.676,174.854z"/>
		<path style="fill:#8CCA7F;" d="M180.826,180.645c1.586-1.584,4.158-1.586,5.74-0.002c1.586,1.586,1.586,4.156,0,5.742
			c-1.584,1.584-4.154,1.584-5.74-0.002C179.242,184.799,179.242,182.23,180.826,180.645z"/>
		<path style="fill:#FBB040;" d="M173.936,164.5c1.586-1.586,4.154-1.588,5.742-0.002c1.584,1.586,1.582,4.156-0.004,5.742
			c-1.584,1.586-4.152,1.586-5.738,0C172.35,168.654,172.35,166.084,173.936,164.5z"/>
	</g>
	<g>
		<path style="fill:#93B352;" d="M126.883,120.906c-3.621,0-6.559-2.938-6.559-6.56c0-3.623,2.938-6.559,6.559-6.559
			c3.621,0,6.559,2.936,6.559,6.559C133.441,117.969,130.504,120.906,126.883,120.906z"/>
		<path style="fill:#EC524F;" d="M118.994,106.389c-2.244,0-4.059-1.818-4.059-4.059c0-2.242,1.814-4.061,4.059-4.061
			c2.24,0,4.059,1.818,4.059,4.061C123.053,104.57,121.234,106.389,118.994,106.389z"/>
		<path style="fill:#FBB040;" d="M112.449,122.678c-2.242,0-4.059-1.816-4.059-4.059c0-2.242,1.816-4.061,4.059-4.061
			c2.244,0,4.059,1.818,4.059,4.061C116.508,120.861,114.693,122.678,112.449,122.678z"/>
	</g>
	<g>
		<g>
			<g>
				<path style="fill:#93B352;" d="M333.934,142.928c-6.613,6.486-12.324,15.336-16.809,23.395
					c-0.195,0.352,0.045,1.627,0.363,0.996c4.424-8.773,10.804-15.917,16.584-23.726
					C334.171,143.46,334.088,142.775,333.934,142.928L333.934,142.928z"/>
			</g>
		</g>
		<g>
			<g>
				<path style="fill:#93B352;" d="M327.029,144.354c-0.099,1.236,0.104,2.466,0.302,3.685c0.095,0.577,0.126,2.186,0.754,2.472
					c0.101,0.045,0.151-0.09,0.167-0.164c0.17-0.783-0.076-1.54-0.234-2.309c-0.252-1.225-0.342-2.472-0.588-3.693
					C327.35,143.947,327.065,143.916,327.029,144.354L327.029,144.354z"/>
			</g>
		</g>
		<g>
			<g>
				<path style="fill:#93B352;" d="M324.309,145.831c-0.172,2.351,0.789,5.212,1.582,7.388c0.06,0.162,0.135,0.018,0.133-0.086
					c-0.058-2.43-1.057-4.98-1.656-7.32C324.352,145.752,324.313,145.786,324.309,145.831L324.309,145.831z"/>
			</g>
		</g>
		<g>
			<g>
				<path style="fill:#93B352;" d="M321.762,149.381c0.111,1.222,0.398,2.412,0.726,3.594c0.265,0.954,0.492,2.551,1.226,3.238
					c0.147,0.137,0.186-0.168,0.186-0.257c0.006-1.15-0.455-2.22-0.801-3.305c-0.371-1.161-0.712-2.341-1.123-3.487
					C321.859,148.843,321.747,149.224,321.762,149.381L321.762,149.381z"/>
			</g>
		</g>
		<g>
			<g>
				<path style="fill:#93B352;" d="M319.547,151.448c0.156,1.296,0.439,2.547,0.781,3.806c0.371,1.367,0.695,2.908,1.295,4.188
					c0.133,0.282,0.262-0.121,0.253-0.252c-0.192-2.689-1.686-5.18-2.208-7.821C319.629,151.171,319.531,151.322,319.547,151.448
					L319.547,151.448z"/>
			</g>
		</g>
		<g>
			<g>
				<path style="fill:#93B352;" d="M318.232,156.385c0.022,0.949,0.222,1.85,0.478,2.762c0.283,1.008,0.579,2.125,1.023,3.072
					c0.105,0.225,0.223-0.024,0.236-0.15c0.227-2.041-1.203-3.809-1.441-5.783C318.478,155.886,318.225,156.081,318.232,156.385
					L318.232,156.385z"/>
			</g>
		</g>
		<g>
			<g>
				<path style="fill:#93B352;" d="M316.814,159.265c0.17,1.079,0.465,2.134,0.726,3.194c0.164,0.668,0.285,1.83,0.836,2.304
					c0.082,0.071,0.131-0.145,0.133-0.182c0.047-0.929-0.282-1.864-0.522-2.753c-0.265-0.982-0.522-1.986-0.915-2.925
					C316.927,158.558,316.793,159.137,316.814,159.265L316.814,159.265z"/>
			</g>
		</g>
		<g>
			<g>
				<path style="fill:#93B352;" d="M328.816,149.791c0.912-0.095,1.822-0.443,2.732-0.609c0.98-0.179,1.879-0.335,2.75-0.83
					c0.09-0.051,0.094-0.393-0.032-0.395c-0.931-0.01-1.83,0.173-2.739,0.373c-0.934,0.205-1.965,0.398-2.752,0.959
					C328.678,149.357,328.652,149.808,328.816,149.791L328.816,149.791z"/>
			</g>
		</g>
		<g>
			<g>
				<path style="fill:#93B352;" d="M327.112,152.186c1.724-0.166,4.305,0.638,5.706-0.617c0.086-0.077,0.137-0.447-0.012-0.493
					c-0.831-0.255-1.67,0.041-2.514,0.155c-1.08,0.147-2.145,0.409-3.186,0.736C327.043,151.986,327.044,152.192,327.112,152.186
					L327.112,152.186z"/>
			</g>
		</g>
		<g>
			<g>
				<path style="fill:#93B352;" d="M325.222,154.781c1.007,0.068,2.018,0.174,3.028,0.188c0.845,0.012,1.945,0.176,2.654-0.338
					c0.219-0.158,0.203-0.77-0.022-0.916c-0.673-0.438-1.491-0.227-2.26-0.176c-1.149,0.077-2.284,0.318-3.418,0.512
					C324.978,154.09,324.992,154.766,325.222,154.781L325.222,154.781z"/>
			</g>
		</g>
		<g>
			<g>
				<path style="fill:#93B352;" d="M322.836,157.944c1.033,0.339,2.141,0.354,3.219,0.319c1.107-0.033,2.229-0.016,3.182-0.637
					c0.139-0.091,0.167-0.608-0.017-0.67c-1.046-0.348-2.125-0.076-3.196,0.04c-1.074,0.116-2.178,0.21-3.195,0.595
					C322.743,157.624,322.75,157.916,322.836,157.944L322.836,157.944z"/>
			</g>
		</g>
		<g>
			<g>
				<path style="fill:#93B352;" d="M320.967,160.833c1.118,0.189,2.242,0.41,3.375,0.464c0.931,0.045,2.141,0.288,3.004-0.146
					c0.141-0.071,0.119-0.494-0.014-0.564c-0.767-0.404-1.79-0.273-2.631-0.287c-1.253-0.02-2.492,0.097-3.742,0.169
					C320.844,160.475,320.855,160.814,320.967,160.833L320.967,160.833z"/>
			</g>
		</g>
		<g>
			<g>
				<path style="fill:#93B352;" d="M319.293,163.637c0.692,0.202,1.363,0.457,2.075,0.578c0.634,0.107,1.438,0.422,2.068,0.193
					c0.158-0.058,0.081-0.449-0.013-0.528c-0.496-0.418-1.26-0.374-1.867-0.425c-0.766-0.065-1.502,0.014-2.261,0.109
					C319.275,163.567,319.275,163.631,319.293,163.637L319.293,163.637z"/>
			</g>
		</g>
		<g>
			<g>
				<path style="fill:#93B352;" d="M317.306,165.858c-3.222-6.245,0.747-14.337,5.356-18.77c2.516-2.42,5.785-3.725,9.202-4.182
					c2.361-0.314,2.956-1.257,3.296,0.976c0.623,4.081,0.29,8.259-1.459,12.027c-1.207,2.603-3.398,4.57-5.83,5.997
					c-3.512,2.061-7.451,1.608-11.051,3.047c-0.877,0.35-0.618,2.928,0.264,3.152c8.604,2.195,17.047-6.069,19.02-13.719
					c1.102-4.269,0.952-9.24-0.235-13.489c-0.068-0.243-0.218-0.653-0.531-0.663c-8.18-0.279-14.299,3.982-17.912,11.182
					c-2.219,4.421-3.654,11.494-0.559,15.859C317.293,167.877,317.472,166.18,317.306,165.858z"/>
			</g>
		</g>
	</g>
	<g>
		<g>
			<g>
				<path style="fill:#93B352;" d="M325.313,211.678c-6.613,6.486-12.324,15.336-16.809,23.395
					c-0.195,0.353,0.045,1.627,0.363,0.996c4.422-8.773,10.803-15.918,16.584-23.727C325.55,212.21,325.467,211.525,325.313,211.678
					L325.313,211.678z"/>
			</g>
		</g>
		<g>
			<g>
				<path style="fill:#93B352;" d="M318.408,213.104c-0.099,1.236,0.103,2.466,0.302,3.685c0.095,0.577,0.126,2.186,0.754,2.472
					c0.101,0.045,0.151-0.09,0.167-0.164c0.17-0.783-0.076-1.54-0.234-2.309c-0.252-1.225-0.342-2.472-0.588-3.693
					C318.728,212.697,318.443,212.666,318.408,213.104L318.408,213.104z"/>
			</g>
		</g>
		<g>
			<g>
				<path style="fill:#93B352;" d="M315.688,214.581c-0.172,2.351,0.789,5.213,1.582,7.39c0.06,0.161,0.135,0.017,0.133-0.087
					c-0.058-2.431-1.057-4.98-1.656-7.321C315.73,214.502,315.691,214.536,315.688,214.581L315.688,214.581z"/>
			</g>
		</g>
		<g>
			<g>
				<path style="fill:#93B352;" d="M313.141,218.131c0.111,1.222,0.398,2.412,0.726,3.594c0.265,0.955,0.492,2.551,1.226,3.239
					c0.147,0.138,0.186-0.168,0.186-0.257c0.006-1.15-0.455-2.221-0.801-3.306c-0.371-1.161-0.712-2.341-1.123-3.487
					C313.238,217.593,313.126,217.974,313.141,218.131L313.141,218.131z"/>
			</g>
		</g>
		<g>
			<g>
				<path style="fill:#93B352;" d="M310.926,220.198c0.156,1.296,0.439,2.547,0.781,3.806c0.371,1.367,0.695,2.908,1.295,4.188
					c0.133,0.282,0.262-0.121,0.253-0.252c-0.192-2.689-1.687-5.181-2.208-7.822C311.008,219.921,310.91,220.072,310.926,220.198
					L310.926,220.198z"/>
			</g>
		</g>
		<g>
			<g>
				<path style="fill:#93B352;" d="M309.61,225.136c0.022,0.949,0.222,1.849,0.477,2.76c0.283,1.008,0.579,2.125,1.023,3.073
					c0.105,0.224,0.223-0.025,0.236-0.151c0.227-2.04-1.203-3.808-1.441-5.781C309.857,224.637,309.603,224.832,309.61,225.136
					L309.61,225.136z"/>
			</g>
		</g>
		<g>
			<g>
				<path style="fill:#93B352;" d="M308.192,228.016c0.171,1.079,0.465,2.133,0.726,3.193c0.164,0.668,0.285,1.83,0.836,2.303
					c0.082,0.07,0.131-0.146,0.133-0.182c0.047-0.929-0.282-1.863-0.521-2.752c-0.265-0.981-0.521-1.985-0.915-2.924
					C308.306,227.309,308.172,227.888,308.192,228.016L308.192,228.016z"/>
			</g>
		</g>
		<g>
			<g>
				<path style="fill:#93B352;" d="M320.195,218.541c0.912-0.095,1.822-0.443,2.732-0.609c0.98-0.179,1.879-0.335,2.75-0.83
					c0.09-0.051,0.094-0.393-0.032-0.395c-0.931-0.01-1.83,0.173-2.739,0.373c-0.934,0.205-1.965,0.398-2.752,0.959
					C320.057,218.107,320.031,218.558,320.195,218.541L320.195,218.541z"/>
			</g>
		</g>
		<g>
			<g>
				<path style="fill:#93B352;" d="M318.491,220.934c1.724-0.164,4.305,0.64,5.706-0.615c0.086-0.077,0.137-0.447-0.012-0.493
					c-0.831-0.255-1.67,0.041-2.514,0.155c-1.08,0.146-2.145,0.408-3.186,0.734C318.422,220.734,318.423,220.94,318.491,220.934
					L318.491,220.934z"/>
			</g>
		</g>
		<g>
			<g>
				<path style="fill:#93B352;" d="M316.601,223.53c1.007,0.068,2.019,0.174,3.028,0.188c0.845,0.011,1.945,0.175,2.654-0.339
					c0.219-0.158,0.203-0.768-0.022-0.915c-0.673-0.438-1.491-0.228-2.26-0.176c-1.149,0.077-2.284,0.317-3.418,0.512
					C316.357,222.838,316.371,223.515,316.601,223.53L316.601,223.53z"/>
			</g>
		</g>
		<g>
			<g>
				<path style="fill:#93B352;" d="M314.215,226.693c1.033,0.34,2.141,0.355,3.219,0.32c1.107-0.033,2.229-0.016,3.182-0.636
					c0.139-0.091,0.167-0.608-0.017-0.67c-1.046-0.348-2.124-0.077-3.196,0.039c-1.074,0.116-2.178,0.21-3.195,0.594
					C314.122,226.373,314.13,226.665,314.215,226.693L314.215,226.693z"/>
			</g>
		</g>
		<g>
			<g>
				<path style="fill:#93B352;" d="M312.346,229.584c1.118,0.188,2.242,0.408,3.375,0.463c0.931,0.045,2.141,0.288,3.004-0.145
					c0.142-0.071,0.119-0.493-0.014-0.563c-0.767-0.406-1.79-0.276-2.631-0.289c-1.253-0.02-2.492,0.097-3.742,0.17
					C312.223,229.226,312.234,229.565,312.346,229.584L312.346,229.584z"/>
			</g>
		</g>
		<g>
			<g>
				<path style="fill:#93B352;" d="M310.672,232.386c0.693,0.202,1.363,0.457,2.075,0.579c0.633,0.107,1.439,0.422,2.068,0.192
					c0.158-0.058,0.081-0.449-0.013-0.528c-0.496-0.417-1.26-0.373-1.867-0.425c-0.766-0.064-1.502,0.014-2.261,0.11
					C310.654,232.316,310.654,232.381,310.672,232.386L310.672,232.386z"/>
			</g>
		</g>
		<g>
			<g>
				<path style="fill:#93B352;" d="M308.685,234.607c-3.222-6.244,0.748-14.337,5.356-18.77c2.516-2.42,5.785-3.725,9.202-4.182
					c2.36-0.314,2.956-1.257,3.296,0.976c0.623,4.08,0.29,8.259-1.459,12.026c-1.207,2.602-3.398,4.57-5.83,5.997
					c-3.512,2.062-7.451,1.608-11.051,3.046c-0.877,0.352-0.618,2.928,0.264,3.153c8.605,2.195,17.047-6.069,19.021-13.719
					c1.102-4.268,0.952-9.239-0.235-13.488c-0.068-0.243-0.218-0.653-0.531-0.663c-8.18-0.279-14.298,3.982-17.912,11.182
					c-2.219,4.42-3.654,11.494-0.559,15.858C308.672,236.626,308.851,234.93,308.685,234.607z"/>
			</g>
		</g>
	</g>
	<g>
		<g>
			<g>
				<path style="fill:#93B352;" d="M113.633,208.574c-6.613,6.486-12.324,15.336-16.809,23.395
					c-0.195,0.353,0.045,1.627,0.363,0.996c4.422-8.773,10.803-15.918,16.584-23.727
					C113.87,209.106,113.787,208.422,113.633,208.574L113.633,208.574z"/>
			</g>
		</g>
		<g>
			<g>
				<path style="fill:#93B352;" d="M106.729,210c-0.099,1.236,0.104,2.466,0.302,3.684c0.095,0.577,0.126,2.186,0.754,2.472
					c0.101,0.045,0.151-0.09,0.167-0.164c0.17-0.783-0.076-1.54-0.234-2.309c-0.252-1.225-0.342-2.472-0.588-3.693
					C107.049,209.594,106.764,209.563,106.729,210L106.729,210z"/>
			</g>
		</g>
		<g>
			<g>
				<path style="fill:#93B352;" d="M104.008,211.477c-0.172,2.352,0.789,5.214,1.582,7.39c0.06,0.162,0.135,0.018,0.133-0.086
					c-0.058-2.431-1.057-4.981-1.656-7.322C104.051,211.398,104.012,211.433,104.008,211.477L104.008,211.477z"/>
			</g>
		</g>
		<g>
			<g>
				<path style="fill:#93B352;" d="M101.461,215.029c0.111,1.222,0.398,2.411,0.726,3.592c0.265,0.955,0.492,2.551,1.226,3.239
					c0.146,0.138,0.186-0.168,0.186-0.257c0.006-1.15-0.455-2.22-0.801-3.305c-0.371-1.161-0.712-2.34-1.123-3.486
					C101.559,214.491,101.446,214.872,101.461,215.029L101.461,215.029z"/>
			</g>
		</g>
		<g>
			<g>
				<path style="fill:#93B352;" d="M99.246,217.095c0.156,1.296,0.44,2.547,0.781,3.806c0.371,1.367,0.697,2.909,1.297,4.188
					c0.133,0.282,0.263-0.121,0.253-0.252c-0.193-2.689-1.687-5.181-2.21-7.822C99.328,216.817,99.23,216.969,99.246,217.095
					L99.246,217.095z"/>
			</g>
		</g>
		<g>
			<g>
				<path style="fill:#93B352;" d="M97.931,222.032c0.022,0.949,0.222,1.849,0.478,2.761c0.283,1.008,0.579,2.124,1.023,3.072
					c0.105,0.224,0.223-0.025,0.236-0.151c0.227-2.04-1.203-3.808-1.441-5.781C98.178,221.533,97.924,221.729,97.931,222.032
					L97.931,222.032z"/>
			</g>
		</g>
		<g>
			<g>
				<path style="fill:#93B352;" d="M96.513,224.912c0.171,1.079,0.466,2.133,0.726,3.193c0.165,0.669,0.287,1.828,0.836,2.303
					c0.082,0.071,0.131-0.146,0.133-0.182c0.049-0.928-0.281-1.863-0.521-2.752c-0.264-0.981-0.521-1.985-0.915-2.924
					C96.626,224.205,96.492,224.784,96.513,224.912L96.513,224.912z"/>
			</g>
		</g>
		<g>
			<g>
				<path style="fill:#93B352;" d="M108.518,215.438c0.912-0.095,1.821-0.443,2.73-0.608c0.982-0.179,1.88-0.335,2.75-0.831
					c0.089-0.051,0.094-0.393-0.032-0.395c-0.931-0.009-1.829,0.174-2.737,0.374c-0.934,0.205-1.965,0.398-2.752,0.958
					C108.379,215.004,108.354,215.454,108.518,215.438L108.518,215.438z"/>
			</g>
		</g>
		<g>
			<g>
				<path style="fill:#93B352;" d="M106.812,217.832c1.724-0.166,4.305,0.638,5.706-0.617c0.086-0.077,0.137-0.447-0.012-0.493
					c-0.831-0.255-1.67,0.041-2.512,0.155c-1.082,0.146-2.146,0.409-3.188,0.736C106.742,217.633,106.743,217.839,106.812,217.832
					L106.812,217.832z"/>
			</g>
		</g>
		<g>
			<g>
				<path style="fill:#93B352;" d="M104.921,220.428c1.007,0.068,2.019,0.174,3.028,0.188c0.845,0.012,1.945,0.176,2.654-0.338
					c0.219-0.158,0.203-0.77-0.022-0.916c-0.673-0.438-1.491-0.227-2.26-0.176c-1.149,0.077-2.284,0.318-3.418,0.512
					C104.678,219.736,104.691,220.412,104.921,220.428L104.921,220.428z"/>
			</g>
		</g>
		<g>
			<g>
				<path style="fill:#93B352;" d="M102.535,223.59c1.033,0.34,2.141,0.355,3.22,0.32c1.106-0.033,2.228-0.016,3.181-0.636
					c0.139-0.091,0.167-0.608-0.017-0.67c-1.046-0.348-2.124-0.077-3.194,0.039c-1.076,0.116-2.18,0.21-3.197,0.594
					C102.442,223.27,102.45,223.561,102.535,223.59L102.535,223.59z"/>
			</g>
		</g>
		<g>
			<g>
				<path style="fill:#93B352;" d="M100.666,226.48c1.119,0.189,2.242,0.409,3.377,0.464c0.93,0.044,2.139,0.288,3.002-0.146
					c0.141-0.071,0.119-0.493-0.014-0.564c-0.767-0.405-1.789-0.275-2.63-0.289c-1.253-0.02-2.493,0.097-3.743,0.17
					C100.543,226.122,100.555,226.462,100.666,226.48L100.666,226.48z"/>
			</g>
		</g>
		<g>
			<g>
				<path style="fill:#93B352;" d="M98.992,229.282c0.693,0.202,1.363,0.457,2.075,0.579c0.633,0.107,1.438,0.422,2.068,0.192
					c0.158-0.058,0.081-0.449-0.013-0.528c-0.496-0.417-1.26-0.373-1.867-0.425c-0.766-0.064-1.502,0.014-2.261,0.11
					C98.975,229.213,98.975,229.277,98.992,229.282L98.992,229.282z"/>
			</g>
		</g>
		<g>
			<g>
				<path style="fill:#93B352;" d="M97.005,231.504c-3.222-6.244,0.748-14.337,5.356-18.77c2.516-2.42,5.785-3.725,9.202-4.182
					c2.36-0.314,2.956-1.257,3.296,0.976c0.624,4.08,0.291,8.259-1.457,12.027c-1.207,2.602-3.4,4.569-5.83,5.996
					c-3.514,2.062-7.453,1.608-11.053,3.046c-0.877,0.352-0.618,2.928,0.264,3.153c8.604,2.195,17.048-6.068,19.021-13.719
					c1.102-4.269,0.952-9.239-0.236-13.488c-0.068-0.243-0.218-0.653-0.531-0.663c-8.18-0.279-14.298,3.982-17.912,11.182
					c-2.219,4.42-3.654,11.494-0.559,15.858C96.992,233.522,97.171,231.826,97.005,231.504z"/>
			</g>
		</g>
	</g>
	<g>
		<g>
			<g>
				<path style="fill:#93B352;" d="M373.389,89.556c5.808,7.801,12.156,14.952,16.59,23.731c0.307,0.607,0.551-0.592,0.371-0.914
					c-4.5-8.107-10.193-16.92-16.816-23.452C373.303,88.693,373.281,89.413,373.389,89.556L373.389,89.556z"/>
			</g>
		</g>
		<g>
			<g>
				<path style="fill:#93B352;" d="M380.027,90.198c-0.223,1.067-0.305,2.159-0.502,3.233c-0.169,0.919-0.52,1.858-0.342,2.797
					c0.018,0.09,0.06,0.293,0.193,0.238c0.611-0.254,0.625-1.77,0.719-2.31c0.214-1.226,0.42-2.482,0.324-3.729
					C380.4,90.169,380.135,89.688,380.027,90.198L380.027,90.198z"/>
			</g>
		</g>
		<g>
			<g>
				<path style="fill:#93B352;" d="M383.077,91.772c-0.62,2.341-1.597,4.895-1.655,7.325c-0.001,0.061,0.073,0.252,0.126,0.113
					c0.475-1.258,0.743-2.617,1.106-3.913c0.313-1.12,0.565-2.323,0.482-3.49C383.135,91.766,383.098,91.696,383.077,91.772
					L383.077,91.772z"/>
			</g>
		</g>
		<g>
			<g>
				<path style="fill:#93B352;" d="M385.48,95.074c-0.412,1.119-0.75,2.273-1.107,3.412c-0.355,1.133-0.832,2.238-0.826,3.437
					c0,0.044,0.054,0.378,0.168,0.278c0.773-0.677,0.916-2.186,1.217-3.142c0.378-1.205,0.643-2.466,0.756-3.724
					C385.695,95.241,385.578,94.809,385.48,95.074L385.48,95.074z"/>
			</g>
		</g>
		<g>
			<g>
				<path style="fill:#93B352;" d="M387.779,97.295c-0.521,2.613-2.025,5.104-2.209,7.769c-0.009,0.128,0.105,0.655,0.262,0.331
					c0.545-1.128,0.791-2.481,1.146-3.682c0.418-1.416,0.745-2.842,0.921-4.309C387.908,97.317,387.814,97.121,387.779,97.295
					L387.779,97.295z"/>
			</g>
		</g>
		<g>
			<g>
				<path style="fill:#93B352;" d="M388.914,102.253c-0.244,1.993-1.648,3.716-1.434,5.781c0.016,0.145,0.141,0.349,0.244,0.14
					c0.449-0.914,0.678-1.984,0.987-2.953c0.3-0.938,0.478-1.899,0.502-2.883C389.222,102.024,388.962,101.863,388.914,102.253
					L388.914,102.253z"/>
			</g>
		</g>
		<g>
			<g>
				<path style="fill:#93B352;" d="M390.361,104.867c-0.361,0.848-0.576,1.751-0.832,2.635c-0.273,0.945-0.643,1.982-0.594,2.976
					c0.002,0.041,0.043,0.326,0.146,0.243c0.562-0.446,0.667-1.662,0.839-2.313c0.277-1.053,0.549-2.115,0.716-3.19
					C390.658,105.076,390.506,104.527,390.361,104.867L390.361,104.867z"/>
			</g>
		</g>
		<g>
			<g>
				<path style="fill:#93B352;" d="M378.656,95.247c-1.383-0.973-3.836-1.347-5.487-1.331c-0.128,0.002-0.099,0.348-0.014,0.396
					c0.767,0.433,1.509,0.59,2.37,0.763c1.031,0.206,2.078,0.566,3.113,0.676C378.805,95.768,378.75,95.313,378.656,95.247
					L378.656,95.247z"/>
			</g>
		</g>
		<g>
			<g>
				<path style="fill:#93B352;" d="M380.346,97.93c-0.814-0.255-1.646-0.451-2.478-0.639c-0.927-0.208-2.303-0.551-3.212-0.266
					c-0.17,0.054-0.125,0.41-0.018,0.503c1.424,1.244,3.963,0.448,5.7,0.616C380.4,98.15,380.4,97.946,380.346,97.93L380.346,97.93z
					"/>
			</g>
		</g>
		<g>
			<g>
				<path style="fill:#93B352;" d="M382.224,100.01c-1.006-0.171-2.014-0.377-3.028-0.483c-0.833-0.088-1.928-0.337-2.654,0.149
					c-0.23,0.154-0.191,0.766,0.023,0.916c0.655,0.462,1.487,0.314,2.26,0.328c1.141,0.02,2.28-0.102,3.418-0.18
					C382.473,100.725,382.447,100.048,382.224,100.01L382.224,100.01z"/>
			</g>
		</g>
		<g>
			<g>
				<path style="fill:#93B352;" d="M384.609,103.55c-1.022-0.382-2.141-0.486-3.22-0.594c-1.07-0.106-2.138-0.389-3.181-0.036
					c-0.188,0.063-0.117,0.584,0.017,0.67c0.847,0.54,1.749,0.566,2.731,0.615c1.209,0.06,2.479,0.089,3.639-0.296
					C384.695,103.877,384.711,103.588,384.609,103.55L384.609,103.55z"/>
			</g>
		</g>
		<g>
			<g>
				<path style="fill:#93B352;" d="M386.477,106.427c-1.124-0.064-2.25-0.196-3.375-0.175c-0.939,0.018-2.148-0.165-3.004,0.295
					c-0.137,0.074-0.123,0.496,0.014,0.564c0.777,0.383,1.795,0.199,2.631,0.162c1.264-0.055,2.498-0.269,3.742-0.481
					C386.598,106.772,386.591,106.434,386.477,106.427L386.477,106.427z"/>
			</g>
		</g>
		<g>
			<g>
				<path style="fill:#93B352;" d="M388.147,109.523c-0.688-0.086-1.378-0.181-2.071-0.127c-0.653,0.051-1.539-0.014-2.069,0.443
					c-0.098,0.084-0.143,0.474,0.013,0.528c0.584,0.208,1.285-0.056,1.869-0.159c0.777-0.138,1.504-0.389,2.261-0.611
					C388.171,109.591,388.172,109.527,388.147,109.523L388.147,109.523z"/>
			</g>
		</g>
		<g>
			<g>
				<path style="fill:#93B352;" d="M390.615,113.225c3.013-4.217,1.52-10.587-0.239-14.98c-3.093-7.725-10.081-12.332-18.337-12.051
					c-0.319,0.011-0.434,0.455-0.498,0.688c-1.219,4.348-1.125,9.12-0.162,13.493c1.693,7.7,10.734,15.848,19.059,13.689
					c0.912-0.236,0.963-2.824,0.109-3.162c-3.291-1.3-6.873-1.125-10.215-2.614c-2.662-1.185-4.834-3.28-6.298-5.774
					c-2.224-3.789-2.316-8.469-1.733-12.702c0.293-2.118,0.232-0.995,2.2-1.02c3.529-0.044,6.84,1.506,9.579,3.605
					c5.296,4.059,9.266,13.118,6.026,19.434C389.938,112.162,390.181,113.832,390.615,113.225z"/>
			</g>
		</g>
	</g>
	<g>
		<g>
			<g>
				<path style="fill:#93B352;" d="M177.598,234.238c5.808,7.801,12.156,14.952,16.59,23.731c0.307,0.607,0.551-0.592,0.371-0.914
					c-4.5-8.107-10.193-16.92-16.816-23.452C177.512,233.375,177.49,234.096,177.598,234.238L177.598,234.238z"/>
			</g>
		</g>
		<g>
			<g>
				<path style="fill:#93B352;" d="M184.236,234.881c-0.223,1.068-0.305,2.16-0.502,3.233c-0.169,0.919-0.52,1.858-0.342,2.797
					c0.018,0.09,0.06,0.293,0.193,0.238c0.611-0.254,0.625-1.769,0.719-2.31c0.214-1.227,0.42-2.482,0.324-3.729
					C184.609,234.852,184.344,234.369,184.236,234.881L184.236,234.881z"/>
			</g>
		</g>
		<g>
			<g>
				<path style="fill:#93B352;" d="M187.286,236.455c-0.62,2.342-1.597,4.895-1.655,7.325c-0.001,0.06,0.073,0.252,0.126,0.113
					c0.475-1.257,0.743-2.618,1.106-3.913c0.313-1.12,0.564-2.323,0.482-3.49C187.344,236.448,187.307,236.379,187.286,236.455
					L187.286,236.455z"/>
			</g>
		</g>
		<g>
			<g>
				<path style="fill:#93B352;" d="M189.689,239.757c-0.412,1.119-0.75,2.273-1.107,3.411c-0.355,1.133-0.832,2.238-0.826,3.438
					c0,0.044,0.054,0.378,0.168,0.278c0.773-0.677,0.916-2.186,1.217-3.142c0.378-1.205,0.643-2.466,0.756-3.724
					C189.904,239.924,189.787,239.491,189.689,239.757L189.689,239.757z"/>
			</g>
		</g>
		<g>
			<g>
				<path style="fill:#93B352;" d="M191.988,241.977c-0.52,2.612-2.025,5.105-2.209,7.769c-0.009,0.127,0.105,0.655,0.262,0.332
					c0.545-1.129,0.791-2.482,1.145-3.683c0.418-1.417,0.745-2.842,0.921-4.309C192.117,242,192.023,241.805,191.988,241.977
					L191.988,241.977z"/>
			</g>
		</g>
		<g>
			<g>
				<path style="fill:#93B352;" d="M193.123,246.936c-0.244,1.993-1.648,3.716-1.434,5.781c0.016,0.145,0.141,0.35,0.244,0.139
					c0.449-0.913,0.678-1.983,0.987-2.952c0.3-0.939,0.478-1.898,0.502-2.883C193.431,246.707,193.171,246.545,193.123,246.936
					L193.123,246.936z"/>
			</g>
		</g>
		<g>
			<g>
				<path style="fill:#93B352;" d="M194.57,249.55c-0.361,0.848-0.576,1.751-0.832,2.635c-0.273,0.944-0.643,1.983-0.594,2.976
					c0.002,0.041,0.043,0.326,0.146,0.243c0.561-0.446,0.667-1.661,0.839-2.314c0.277-1.053,0.549-2.115,0.716-3.191
					C194.867,249.758,194.715,249.211,194.57,249.55L194.57,249.55z"/>
			</g>
		</g>
		<g>
			<g>
				<path style="fill:#93B352;" d="M182.865,239.93c-1.383-0.973-3.836-1.348-5.487-1.331c-0.128,0.001-0.099,0.348-0.014,0.395
					c0.767,0.432,1.509,0.59,2.37,0.763c1.031,0.206,2.078,0.566,3.113,0.676C183.014,240.45,182.959,239.995,182.865,239.93
					L182.865,239.93z"/>
			</g>
		</g>
		<g>
			<g>
				<path style="fill:#93B352;" d="M184.555,242.611c-0.814-0.254-1.646-0.45-2.478-0.637c-0.927-0.209-2.303-0.552-3.212-0.267
					c-0.17,0.054-0.125,0.41-0.018,0.503c1.424,1.244,3.963,0.449,5.7,0.616C184.609,242.833,184.609,242.629,184.555,242.611
					L184.555,242.611z"/>
			</g>
		</g>
		<g>
			<g>
				<path style="fill:#93B352;" d="M186.433,244.692c-1.006-0.171-2.014-0.377-3.028-0.483c-0.833-0.088-1.928-0.337-2.654,0.15
					c-0.23,0.153-0.191,0.765,0.023,0.915c0.655,0.462,1.487,0.314,2.26,0.328c1.141,0.02,2.28-0.102,3.418-0.18
					C186.682,245.407,186.656,244.73,186.433,244.692L186.433,244.692z"/>
			</g>
		</g>
		<g>
			<g>
				<path style="fill:#93B352;" d="M188.818,248.232c-1.023-0.383-2.141-0.486-3.22-0.594c-1.07-0.106-2.138-0.389-3.181-0.036
					c-0.188,0.064-0.117,0.583,0.017,0.67c0.847,0.54,1.749,0.567,2.731,0.615c1.209,0.06,2.479,0.089,3.639-0.296
					C188.904,248.559,188.92,248.27,188.818,248.232L188.818,248.232z"/>
			</g>
		</g>
		<g>
			<g>
				<path style="fill:#93B352;" d="M190.686,251.109c-1.124-0.064-2.25-0.196-3.375-0.176c-0.939,0.019-2.148-0.164-3.004,0.296
					c-0.137,0.074-0.123,0.496,0.014,0.563c0.777,0.384,1.795,0.2,2.631,0.164c1.264-0.057,2.498-0.27,3.742-0.482
					C190.807,251.455,190.8,251.116,190.686,251.109L190.686,251.109z"/>
			</g>
		</g>
		<g>
			<g>
				<path style="fill:#93B352;" d="M192.357,254.207c-0.689-0.087-1.378-0.182-2.071-0.128c-0.653,0.051-1.539-0.014-2.069,0.443
					c-0.098,0.084-0.143,0.474,0.013,0.528c0.584,0.207,1.285-0.055,1.869-0.158c0.777-0.139,1.504-0.391,2.261-0.613
					C192.38,254.273,192.381,254.21,192.357,254.207L192.357,254.207z"/>
			</g>
		</g>
		<g>
			<g>
				<path style="fill:#93B352;" d="M194.824,257.908c3.013-4.218,1.52-10.588-0.239-14.982
					c-3.093-7.725-10.081-12.332-18.337-12.052c-0.319,0.012-0.434,0.457-0.498,0.689c-1.219,4.348-1.125,9.119-0.162,13.493
					c1.693,7.7,10.734,15.848,19.059,13.689c0.912-0.236,0.963-2.825,0.109-3.162c-3.291-1.3-6.873-1.125-10.215-2.614
					c-2.662-1.186-4.834-3.28-6.298-5.774c-2.224-3.788-2.316-8.469-1.733-12.702c0.293-2.118,0.232-0.995,2.2-1.02
					c3.529-0.043,6.84,1.506,9.579,3.605c5.296,4.059,9.266,13.117,6.026,19.434C194.146,256.844,194.39,258.515,194.824,257.908z"
					/>
			</g>
		</g>
	</g>
	<g>
		<g>
			<g>
				<path style="fill:#93B352;" d="M53.965,147.614c5.807,7.802,12.154,14.953,16.59,23.732c0.307,0.607,0.551-0.592,0.371-0.914
					c-4.502-8.107-10.193-16.919-16.816-23.452C53.879,146.752,53.857,147.472,53.965,147.614L53.965,147.614z"/>
			</g>
		</g>
		<g>
			<g>
				<path style="fill:#93B352;" d="M60.602,148.257c-0.221,1.067-0.304,2.159-0.501,3.233c-0.169,0.918-0.521,1.859-0.341,2.797
					c0.018,0.09,0.06,0.293,0.193,0.238c0.611-0.255,0.624-1.77,0.718-2.311c0.214-1.226,0.421-2.481,0.323-3.727
					C60.975,148.229,60.709,147.745,60.602,148.257L60.602,148.257z"/>
			</g>
		</g>
		<g>
			<g>
				<path style="fill:#93B352;" d="M63.653,149.829c-0.622,2.341-1.598,4.895-1.655,7.325c-0.001,0.061,0.073,0.252,0.126,0.113
					c0.475-1.257,0.743-2.617,1.105-3.912c0.313-1.12,0.565-2.324,0.483-3.491C63.711,149.822,63.674,149.753,63.653,149.829
					L63.653,149.829z"/>
			</g>
		</g>
		<g>
			<g>
				<path style="fill:#93B352;" d="M66.055,153.131c-0.41,1.12-0.747,2.273-1.105,3.412c-0.356,1.136-0.834,2.235-0.828,3.437
					c0,0.044,0.054,0.378,0.168,0.278c0.759-0.662,0.923-2.2,1.219-3.141c0.379-1.205,0.643-2.467,0.754-3.725
					C66.27,153.298,66.152,152.865,66.055,153.131L66.055,153.131z"/>
			</g>
		</g>
		<g>
			<g>
				<path style="fill:#93B352;" d="M68.357,155.354c-0.522,2.612-2.028,5.104-2.211,7.768c-0.009,0.127,0.105,0.655,0.262,0.331
					c0.545-1.129,0.789-2.481,1.144-3.682c0.419-1.416,0.748-2.842,0.924-4.309C68.486,155.376,68.392,155.18,68.357,155.354
					L68.357,155.354z"/>
			</g>
		</g>
		<g>
			<g>
				<path style="fill:#93B352;" d="M69.492,160.309c-0.246,1.993-1.652,3.717-1.436,5.783c0.016,0.145,0.141,0.35,0.244,0.14
					c0.448-0.915,0.678-1.985,0.987-2.954c0.3-0.939,0.479-1.899,0.504-2.884C69.801,160.08,69.541,159.92,69.492,160.309
					L69.492,160.309z"/>
			</g>
		</g>
		<g>
			<g>
				<path style="fill:#93B352;" d="M70.938,162.926c-0.361,0.848-0.576,1.75-0.832,2.633c-0.273,0.945-0.643,1.981-0.596,2.976
					c0.002,0.042,0.042,0.325,0.146,0.243c0.563-0.443,0.67-1.663,0.842-2.313c0.277-1.052,0.547-2.113,0.715-3.188
					C71.234,163.135,71.082,162.587,70.938,162.926L70.938,162.926z"/>
			</g>
		</g>
		<g>
			<g>
				<path style="fill:#93B352;" d="M59.232,153.304c-1.383-0.972-3.834-1.347-5.485-1.329c-0.128,0.002-0.099,0.348-0.014,0.396
					c0.766,0.432,1.509,0.589,2.368,0.761c1.031,0.206,2.078,0.566,3.113,0.676C59.381,153.824,59.326,153.369,59.232,153.304
					L59.232,153.304z"/>
			</g>
		</g>
		<g>
			<g>
				<path style="fill:#93B352;" d="M60.922,155.986c-0.815-0.254-1.646-0.449-2.478-0.637c-0.927-0.208-2.303-0.551-3.212-0.266
					c-0.17,0.054-0.125,0.41-0.017,0.503c1.424,1.244,3.964,0.448,5.7,0.614C60.977,156.207,60.977,156.003,60.922,155.986
					L60.922,155.986z"/>
			</g>
		</g>
		<g>
			<g>
				<path style="fill:#93B352;" d="M62.8,158.068c-1.006-0.171-2.014-0.377-3.028-0.484c-0.834-0.088-1.928-0.336-2.654,0.15
					c-0.229,0.154-0.191,0.766,0.023,0.916c0.655,0.461,1.487,0.314,2.26,0.327c1.141,0.02,2.28-0.101,3.418-0.179
					C63.049,158.783,63.023,158.106,62.8,158.068L62.8,158.068z"/>
			</g>
		</g>
		<g>
			<g>
				<path style="fill:#93B352;" d="M65.186,161.608c-1.022-0.382-2.141-0.487-3.22-0.595c-1.07-0.106-2.138-0.39-3.181-0.037
					c-0.188,0.063-0.117,0.584,0.017,0.67c0.846,0.54,1.749,0.567,2.731,0.616c1.209,0.06,2.48,0.09,3.639-0.295
					C65.271,161.936,65.287,161.646,65.186,161.608L65.186,161.608z"/>
			</g>
		</g>
		<g>
			<g>
				<path style="fill:#93B352;" d="M67.053,164.485c-1.124-0.064-2.25-0.196-3.375-0.175c-0.939,0.018-2.148-0.165-3.004,0.295
					c-0.137,0.074-0.123,0.496,0.014,0.565c0.777,0.383,1.795,0.199,2.631,0.162c1.264-0.055,2.498-0.269,3.742-0.481
					C67.174,164.831,67.167,164.492,67.053,164.485L67.053,164.485z"/>
			</g>
		</g>
		<g>
			<g>
				<path style="fill:#93B352;" d="M68.724,167.58c-0.688-0.086-1.377-0.18-2.071-0.126c-0.652,0.051-1.539-0.014-2.069,0.442
					c-0.099,0.084-0.143,0.473,0.013,0.528c0.584,0.209,1.286-0.055,1.869-0.158c0.777-0.138,1.504-0.39,2.261-0.612
					C68.747,167.647,68.748,167.584,68.724,167.58L68.724,167.58z"/>
			</g>
		</g>
		<g>
			<g>
				<path style="fill:#93B352;" d="M71.191,171.281c3.012-4.217,1.52-10.586-0.239-14.979c-3.093-7.726-10.08-12.333-18.337-12.053
					c-0.319,0.011-0.434,0.456-0.498,0.688c-1.219,4.348-1.125,9.12-0.162,13.493c1.693,7.7,10.734,15.848,19.059,13.689
					c0.912-0.236,0.963-2.824,0.109-3.162c-3.291-1.3-6.873-1.125-10.215-2.614c-2.662-1.185-4.834-3.28-6.298-5.774
					c-2.224-3.789-2.316-8.469-1.733-12.702c0.293-2.118,0.232-0.995,2.201-1.019c3.529-0.044,6.839,1.506,9.579,3.605
					c5.294,4.059,9.263,13.117,6.025,19.433C70.514,170.219,70.757,171.889,71.191,171.281z"/>
			</g>
		</g>
	</g>
	<g>
		<g>
			<g>
				<path style="fill:#93B352;" d="M241.758,170.118c5.809,7.8,12.156,14.951,16.59,23.731c0.307,0.607,0.551-0.592,0.371-0.914
					c-4.498-8.107-10.191-16.922-16.816-23.452C241.672,169.256,241.65,169.976,241.758,170.118L241.758,170.118z"/>
			</g>
		</g>
		<g>
			<g>
				<path style="fill:#93B352;" d="M248.396,170.761c-0.223,1.067-0.305,2.159-0.502,3.232c-0.169,0.919-0.52,1.858-0.342,2.796
					c0.018,0.09,0.06,0.293,0.193,0.238c0.611-0.252,0.625-1.77,0.719-2.309c0.213-1.226,0.42-2.481,0.324-3.728
					C248.77,170.731,248.504,170.25,248.396,170.761L248.396,170.761z"/>
			</g>
		</g>
		<g>
			<g>
				<path style="fill:#93B352;" d="M251.446,172.333c-0.62,2.341-1.597,4.895-1.655,7.325c-0.001,0.061,0.073,0.252,0.126,0.113
					c0.475-1.258,0.743-2.617,1.106-3.913c0.313-1.12,0.564-2.323,0.482-3.49C251.504,172.326,251.467,172.257,251.446,172.333
					L251.446,172.333z"/>
			</g>
		</g>
		<g>
			<g>
				<path style="fill:#93B352;" d="M253.85,175.635c-0.411,1.119-0.748,2.273-1.106,3.412c-0.356,1.135-0.833,2.235-0.827,3.437
					c0,0.044,0.054,0.378,0.168,0.278c0.758-0.663,0.922-2.2,1.217-3.142c0.379-1.205,0.645-2.466,0.756-3.724
					C254.064,175.802,253.947,175.369,253.85,175.635L253.85,175.635z"/>
			</g>
		</g>
		<g>
			<g>
				<path style="fill:#93B352;" d="M256.15,177.857c-0.522,2.612-2.027,5.104-2.211,7.768c-0.009,0.127,0.105,0.655,0.262,0.331
					c0.545-1.129,0.791-2.482,1.145-3.684c0.419-1.416,0.747-2.84,0.923-4.307C256.279,177.88,256.185,177.684,256.15,177.857
					L256.15,177.857z"/>
			</g>
		</g>
		<g>
			<g>
				<path style="fill:#93B352;" d="M257.285,182.813c-0.244,1.993-1.65,3.715-1.436,5.781c0.016,0.145,0.141,0.349,0.244,0.14
					c0.449-0.914,0.679-1.984,0.988-2.953c0.301-0.939,0.479-1.898,0.503-2.883C257.593,182.585,257.333,182.424,257.285,182.813
					L257.285,182.813z"/>
			</g>
		</g>
		<g>
			<g>
				<path style="fill:#93B352;" d="M258.732,185.43c-0.363,0.847-0.578,1.75-0.833,2.633c-0.274,0.945-0.644,1.982-0.595,2.976
					c0.002,0.042,0.043,0.326,0.147,0.243c0.563-0.444,0.668-1.662,0.84-2.314c0.277-1.052,0.548-2.114,0.717-3.188
					C259.029,185.638,258.878,185.091,258.732,185.43L258.732,185.43z"/>
			</g>
		</g>
		<g>
			<g>
				<path style="fill:#93B352;" d="M247.027,175.808c-1.383-0.973-3.836-1.347-5.487-1.331c-0.128,0.002-0.099,0.348-0.014,0.395
					c0.767,0.433,1.509,0.59,2.37,0.763c1.029,0.206,2.077,0.566,3.113,0.676C247.176,176.328,247.121,175.873,247.027,175.808
					L247.027,175.808z"/>
			</g>
		</g>
		<g>
			<g>
				<path style="fill:#93B352;" d="M248.715,178.49c-0.814-0.254-1.645-0.449-2.477-0.637c-0.928-0.208-2.303-0.553-3.213-0.268
					c-0.17,0.053-0.124,0.41-0.018,0.503c1.424,1.245,3.963,0.45,5.7,0.616C248.77,178.711,248.77,178.507,248.715,178.49
					L248.715,178.49z"/>
			</g>
		</g>
		<g>
			<g>
				<path style="fill:#93B352;" d="M250.593,180.57c-1.006-0.171-2.013-0.377-3.027-0.483c-0.833-0.088-1.929-0.337-2.655,0.149
					c-0.23,0.154-0.191,0.766,0.022,0.916c0.655,0.462,1.487,0.314,2.261,0.328c1.141,0.02,2.279-0.101,3.417-0.18
					C250.842,181.285,250.816,180.608,250.593,180.57L250.593,180.57z"/>
			</g>
		</g>
		<g>
			<g>
				<path style="fill:#93B352;" d="M252.98,184.11c-1.023-0.382-2.141-0.486-3.221-0.594c-1.07-0.107-2.137-0.389-3.18-0.036
					c-0.188,0.064-0.117,0.584,0.017,0.67c0.846,0.54,1.749,0.566,2.731,0.615c1.209,0.06,2.479,0.089,3.639-0.296
					C253.066,184.438,253.082,184.148,252.98,184.11L252.98,184.11z"/>
			</g>
		</g>
		<g>
			<g>
				<path style="fill:#93B352;" d="M254.848,186.987c-1.124-0.064-2.25-0.196-3.376-0.175c-0.939,0.018-2.149-0.164-3.005,0.297
					c-0.137,0.074-0.124,0.496,0.014,0.564c0.777,0.382,1.796,0.198,2.633,0.161c1.263-0.057,2.498-0.27,3.742-0.482
					C254.969,187.333,254.962,186.994,254.848,186.987L254.848,186.987z"/>
			</g>
		</g>
		<g>
			<g>
				<path style="fill:#93B352;" d="M256.519,190.084c-0.689-0.086-1.378-0.181-2.072-0.127c-0.653,0.051-1.54-0.014-2.07,0.443
					c-0.098,0.084-0.143,0.474,0.013,0.528c0.584,0.208,1.286-0.056,1.869-0.159c0.778-0.138,1.506-0.389,2.263-0.611
					C256.542,190.151,256.543,190.088,256.519,190.084L256.519,190.084z"/>
			</g>
		</g>
		<g>
			<g>
				<path style="fill:#93B352;" d="M258.984,193.785c3.013-4.216,1.52-10.586-0.238-14.979
					c-3.094-7.726-10.081-12.333-18.338-12.053c-0.319,0.011-0.434,0.456-0.498,0.688c-1.219,4.348-1.123,9.12-0.162,13.493
					c1.694,7.699,10.734,15.848,19.059,13.689c0.912-0.236,0.963-2.824,0.109-3.162c-3.291-1.3-6.873-1.125-10.215-2.614
					c-2.661-1.186-4.834-3.28-6.297-5.774c-2.224-3.789-2.316-8.469-1.733-12.702c0.292-2.118,0.232-0.995,2.2-1.018
					c3.529-0.044,6.84,1.506,9.579,3.605c5.295,4.059,9.265,13.117,6.025,19.433C258.307,192.723,258.55,194.393,258.984,193.785z"
					/>
			</g>
		</g>
	</g>
	<g>
		<g>
			<g>
				<path style="fill:#93B352;" d="M88.607,67.755c-8.617,4.366-16.475,9.695-25.814,12.649c-0.432,0.137-0.314,1.414,0.105,1.254
					c8.68-3.316,18.344-7.603,25.811-13.2C88.87,68.337,88.838,67.639,88.607,67.755L88.607,67.755z"/>
			</g>
		</g>
		<g>
			<g>
				<path style="fill:#93B352;" d="M86.499,74.141c-0.946-0.511-2.017-0.725-3.026-1.08c-0.756-0.266-1.817-1.013-2.566-0.533
					c-0.176,0.113-0.112,0.493-0.021,0.636c0.549,0.85,1.528,1.011,2.452,1.305c0.997,0.317,2.076,0.724,3.129,0.607
					C86.766,75.041,86.714,74.256,86.499,74.141L86.499,74.141z"/>
			</g>
		</g>
		<g>
			<g>
				<path style="fill:#93B352;" d="M84.667,77.18c-1.005-0.623-2.21-1.055-3.286-1.563c-1.137-0.537-2.396-1.276-3.684-1.226
					c-0.111,0.004-0.074,0.278-0.012,0.323c1.068,0.772,2.408,1.237,3.611,1.775c0.994,0.444,2.264,0.984,3.365,0.834
					C84.709,77.316,84.699,77.199,84.667,77.18L84.667,77.18z"/>
			</g>
		</g>
		<g>
			<g>
				<path style="fill:#93B352;" d="M80.895,78.899c-1.033-0.688-2.173-1.263-3.281-1.822c-0.869-0.439-2.066-1.375-3.043-1.088
					c-0.182,0.054-0.138,0.43-0.051,0.546c0.719,0.952,1.918,1.33,2.969,1.85c1.045,0.516,2.227,0.943,3.388,1.053
					C81.051,79.455,80.998,78.968,80.895,78.899L80.895,78.899z"/>
			</g>
		</g>
		<g>
			<g>
				<path style="fill:#93B352;" d="M78.459,80.944c-1.271-0.516-2.456-1.162-3.636-1.858c-1.059-0.624-2.511-1.642-3.759-1.621
					c-0.242,0.005-0.142,0.585-0.024,0.684c1.012,0.85,2.496,1.284,3.695,1.857c1.169,0.559,2.455,0.935,3.714,1.227
					C78.524,81.25,78.531,80.974,78.459,80.944L78.459,80.944z"/>
			</g>
		</g>
		<g>
			<g>
				<path style="fill:#93B352;" d="M73.378,81.209c-1.019-0.344-1.852-0.942-2.78-1.461c-0.792-0.441-1.636-1.078-2.578-0.81
					c-0.222,0.063-0.155,0.529-0.022,0.647c0.798,0.709,1.845,1.081,2.786,1.569c0.776,0.403,1.706,0.639,2.57,0.737
					C73.549,81.914,73.549,81.267,73.378,81.209L73.378,81.209z"/>
			</g>
		</g>
		<g>
			<g>
				<path style="fill:#93B352;" d="M70.412,82.172c-0.853-0.61-1.83-1.012-2.773-1.468c-0.664-0.321-1.644-0.896-2.365-0.653
					c-0.137,0.046-0.076,0.39-0.016,0.469c0.58,0.764,1.652,1.127,2.53,1.472c0.857,0.337,1.692,0.733,2.6,0.899
					C70.615,82.932,70.543,82.266,70.412,82.172L70.412,82.172z"/>
			</g>
		</g>
		<g>
			<g>
				<path style="fill:#93B352;" d="M81.755,72.493c0.634-0.646,0.94-1.67,1.26-2.5c0.354-0.923,0.671-1.858,0.944-2.808
					c0.016-0.055-0.029-0.411-0.127-0.271c-0.463,0.659-0.71,1.393-0.979,2.149c-0.368,1.035-0.855,2.01-1.243,3.031
					C81.578,72.178,81.59,72.661,81.755,72.493L81.755,72.493z"/>
			</g>
		</g>
		<g>
			<g>
				<path style="fill:#93B352;" d="M78.959,73.646c0.749-1.696,1.393-3.678,1.678-5.505c0.008-0.046-0.025-0.405-0.145-0.312
					c-0.631,0.496-0.722,1.512-0.887,2.242c-0.26,1.148-0.377,2.316-0.725,3.443C78.867,73.563,78.912,73.754,78.959,73.646
					L78.959,73.646z"/>
			</g>
		</g>
		<g>
			<g>
				<path style="fill:#93B352;" d="M76.465,75.271c0.484-1.794,1.375-3.952,1.146-5.835c-0.017-0.131-0.142-0.489-0.313-0.276
					c-0.453,0.57-0.441,1.526-0.569,2.218c-0.222,1.201-0.383,2.412-0.563,3.619C76.133,75.22,76.35,75.696,76.465,75.271
					L76.465,75.271z"/>
			</g>
		</g>
		<g>
			<g>
				<path style="fill:#93B352;" d="M72.712,77.045c0.342-0.878,0.54-1.82,0.755-2.736c0.273-1.161,0.666-2.297,0.762-3.491
					c0.006-0.081-0.063-0.61-0.232-0.387c-0.592,0.78-0.725,1.896-0.927,2.827c-0.261,1.201-0.472,2.43-0.497,3.661
					C72.571,76.986,72.652,77.198,72.712,77.045L72.712,77.045z"/>
			</g>
		</g>
		<g>
			<g>
				<path style="fill:#93B352;" d="M69.596,78.395c0.307-2.056,0.967-4.348,0.785-6.433c-0.012-0.126-0.128-0.313-0.217-0.123
					c-0.363,0.776-0.354,1.809-0.451,2.646c-0.146,1.269-0.215,2.54-0.273,3.815C69.432,78.458,69.559,78.645,69.596,78.395
					L69.596,78.395z"/>
			</g>
		</g>
		<g>
			<g>
				<path style="fill:#93B352;" d="M66.361,79.566c0.123-0.73,0.219-1.459,0.252-2.199c0.031-0.682,0.162-1.503-0.1-2.154
					c-0.059-0.146-0.165-0.045-0.187,0.06c-0.284,1.355-0.026,2.901,0.005,4.276C66.332,79.57,66.355,79.605,66.361,79.566
					L66.361,79.566z"/>
			</g>
		</g>
		<g>
			<g>
				<path style="fill:#93B352;" d="M62.967,82.109c4.053,4.017,11.056,3.005,15.923,1.318c7.206-2.498,11.481-8.689,12.225-16.091
					c0.043-0.427,0.034-1.439-0.458-1.669c-12.534-5.865-27.024,0.6-28.2,15.254c-0.045,0.564,0.559,3.069,1.211,1.535
					c1.908-4.482,2.636-8.777,6.426-12.214c2.571-2.331,5.997-3.347,9.385-3.633c3.578-0.302,7.586,0.364,10.927,1.698
					c-0.153-0.557-0.306-1.113-0.458-1.669c-0.825,11.414-16.553,20.784-26.721,13.827C62.754,80.143,62.676,81.821,62.967,82.109z"
					/>
			</g>
		</g>
	</g>
	<g>
		<g>
			<g>
				<path style="fill:#93B352;" d="M192.779,41.63c-2.336,9.235-3.229,19.434-3.123,28.941c0.009,0.76,0.588,0.746,0.559-0.014
					c-0.369-9.708,1.389-19.121,2.863-28.653C193.113,41.681,192.888,41.203,192.779,41.63L192.779,41.63z"/>
			</g>
		</g>
		<g>
			<g>
				<path style="fill:#93B352;" d="M187.488,46.504c0.363,0.901,0.943,1.665,1.527,2.436c0.577,0.763,1.162,1.58,1.918,2.176
					c0.052,0.03,0.103,0.029,0.152-0.004c0.052-0.026,0.103-0.054,0.154-0.08c0.148-0.078,0.105-0.389,0.078-0.513
					c-0.211-0.958-0.986-1.604-1.607-2.329c-0.69-0.807-1.253-1.771-2.041-2.484C187.428,45.485,187.449,46.406,187.488,46.504
					L187.488,46.504z"/>
			</g>
		</g>
		<g>
			<g>
				<path style="fill:#93B352;" d="M185.758,48.834c0.444,1.158,1.361,2.15,2.223,3.022c0.838,0.847,1.725,2.063,2.76,2.645
					c0.105,0.059,0.082-0.236,0.063-0.276c-0.591-1.245-1.663-2.21-2.643-3.152c-0.775-0.746-1.509-1.746-2.374-2.361
					C185.742,48.68,185.752,48.818,185.758,48.834L185.758,48.834z"/>
			</g>
		</g>
		<g>
			<g>
				<path style="fill:#93B352;" d="M185.27,53.24c0.656,1.065,1.49,2.051,2.396,2.916c0.408,0.39,0.828,0.77,1.24,1.154
					c0.373,0.349,0.791,0.979,1.342,0.853c0.15-0.034,0.137-0.335,0.099-0.442c-0.412-1.164-1.53-1.914-2.411-2.739
					c-0.826-0.773-1.674-1.578-2.586-2.244C185.188,52.619,185.224,53.165,185.27,53.24L185.27,53.24z"/>
			</g>
		</g>
		<g>
			<g>
				<path style="fill:#93B352;" d="M184.354,56.074c0.797,1.14,1.707,2.171,2.668,3.174c0.461,0.48,0.969,0.923,1.445,1.389
					c0.484,0.474,0.904,1.156,1.546,1.393c0.238,0.087,0.184-0.48,0.134-0.584c-0.511-1.047-1.545-1.792-2.406-2.558
					c-1.135-1.007-2.318-1.929-3.328-3.067C184.328,55.726,184.313,56.016,184.354,56.074L184.354,56.074z"/>
			</g>
		</g>
		<g>
			<g>
				<path style="fill:#93B352;" d="M185.65,61.131c0.493,0.883,1.148,1.712,1.903,2.387c0.425,0.38,0.848,0.759,1.25,1.162
					c0.274,0.275,0.581,0.605,0.964,0.706c0.166,0.043,0.132-0.435,0.111-0.498c-0.612-1.97-2.875-2.749-4.058-4.307
					C185.646,60.353,185.581,61.006,185.65,61.131L185.65,61.131z"/>
			</g>
		</g>
		<g>
			<g>
				<path style="fill:#93B352;" d="M185.809,64.319c0.582,0.819,1.291,1.531,1.971,2.271c0.452,0.493,1.265,1.62,1.98,1.626
					c0.158,0.001,0.1-0.363,0.068-0.438c-0.355-0.876-1.133-1.59-1.809-2.239c-0.677-0.652-1.318-1.37-2.105-1.891
					C185.694,63.503,185.732,64.214,185.809,64.319L185.809,64.319z"/>
			</g>
		</g>
		<g>
			<g>
				<path style="fill:#93B352;" d="M191.518,50.045c0.367-0.217,0.625-0.597,0.928-0.894c0.377-0.369,0.785-0.706,1.192-1.042
					c0.747-0.616,1.431-1.213,1.978-2.016c0.041-0.061,0.053-0.441-0.076-0.365c-0.811,0.482-1.518,1.107-2.223,1.735
					c-0.691,0.617-1.522,1.304-1.918,2.156C191.367,49.688,191.359,50.139,191.518,50.045L191.518,50.045z"/>
			</g>
		</g>
		<g>
			<g>
				<path style="fill:#93B352;" d="M191.262,52.955c1.514-1.096,3.775-1.578,4.643-3.366c0.03-0.063,0.057-0.464-0.09-0.434
					c-0.879,0.176-1.621,1.051-2.333,1.571c-0.81,0.593-1.564,1.31-2.262,2.03C191.184,52.792,191.204,52.996,191.262,52.955
					L191.262,52.955z"/>
			</g>
		</g>
		<g>
			<g>
				<path style="fill:#93B352;" d="M190.793,56.17c0.917-0.447,1.87-0.854,2.748-1.373c0.73-0.433,1.658-0.781,2.096-1.54
					c0.092-0.159,0.195-0.788-0.071-0.866c-0.684-0.201-1.391,0.51-1.94,0.867c-1.027,0.667-1.971,1.454-2.934,2.209
					C190.537,55.588,190.556,56.285,190.793,56.17L190.793,56.17z"/>
			</g>
		</g>
		<g>
			<g>
				<path style="fill:#93B352;" d="M190.332,60.079c0.943-0.171,1.822-0.665,2.633-1.157c1.027-0.621,2.071-1.217,2.732-2.247
					c0.063-0.098,0.135-0.677-0.092-0.646c-0.955,0.135-1.738,0.922-2.497,1.464c-0.979,0.699-1.989,1.374-2.824,2.247
					C190.238,59.788,190.225,60.099,190.332,60.079L190.332,60.079z"/>
			</g>
		</g>
		<g>
			<g>
				<path style="fill:#93B352;" d="M190.119,63.512c1.028-0.373,2.072-0.727,3.051-1.219c0.891-0.448,1.976-0.842,2.629-1.626
					c0.078-0.094,0.107-0.538-0.078-0.543c-0.813-0.025-1.699,0.667-2.386,1.038c-1.126,0.608-2.182,1.321-3.267,1.998
					C189.982,63.215,189.994,63.557,190.119,63.512L190.119,63.512z"/>
			</g>
		</g>
		<g>
			<g>
				<path style="fill:#93B352;" d="M190.089,66.764c0.594-0.137,1.21-0.208,1.782-0.416c0.676-0.245,1.568-0.379,2.099-0.898
					c0.089-0.087,0.149-0.476-0.013-0.528c-0.593-0.194-1.321,0.3-1.836,0.533c-0.732,0.332-1.383,0.776-2.038,1.237
					C190.068,66.701,190.066,66.768,190.089,66.764L190.089,66.764z"/>
			</g>
		</g>
		<g>
			<g>
				<path style="fill:#93B352;" d="M189.631,69.486c-4.572-3.202-6.094-9.236-5.854-14.553c0.142-3.131,1.248-6.068,2.971-8.655
					c0.375-0.562,5.754-6.019,6.404-5.299c2.121,2.352,3.758,5.167,4.953,8.085c1.332,3.247,1.411,6.674,0.195,9.959
					c-1.643,4.442-5.811,6.649-8.977,9.783c-0.552,0.545-0.757,3.528,0.449,3.09c8.115-2.948,11.945-12.973,10.508-20.936
					c-0.828-4.577-3.39-9.213-6.701-12.481c-0.146-0.145-0.26-0.231-0.463-0.126c-6.661,3.435-10.473,9.734-10.449,17.268
					c0.018,5.181,1.386,13.23,6.799,15.596C190.055,71.475,190.027,69.764,189.631,69.486z"/>
			</g>
		</g>
	</g>
</g>
<g>
	<path style="fill:#E0C7AD;" d="M191.689,364.512c0,9.016-27.879,16.325-62.27,16.325c-34.394,0-62.275-7.31-62.275-16.325
		c0-9.015,27.882-16.321,62.275-16.321C163.811,348.19,191.689,355.497,191.689,364.512z"/>
	<g>
		<path style="fill:#C93E3F;" d="M80.326,165.96l19.615,186.075l0,0c0,9.599,17.253,17.379,46.692,17.379
			c29.441,0,46.694-7.78,46.694-17.379l19.615-186.075H80.326z"/>
		<path style="opacity:0.2;fill:#FFFFFF;" d="M133.643,319.609c17.41-6.209,18.846-28.392,19.633-44.176
			c0.704-14.213,1.504-33.465-9.795-44.148c-8.996-8.506-22.241-9.651-33.942-11.094c-8.04-0.993-16.393-2.009-24.009-4.88
			l10.998,104.321c5.766,1.031,11.852,1.42,17.48,1.768C120.519,321.801,127.417,321.829,133.643,319.609z"/>
		<path style="fill:#C93E3F;" d="M80.326,165.96l3.621,34.349c9.26,4.49,19.736,6.016,30.568,6.57
			c13.421,0.688,29.227,0.015,41.532,6.315c19.247,9.854,20.513,37.593,19.9,56.349c-0.427,13.107-2.084,26.201-4.737,39.041
			c-2.609,12.633-6.951,24.49-20.066,29.34c-13.109,4.846-27.918,3.488-41.241,0.259c-3.751-0.907-7.792-2.013-11.785-3.441
			l1.823,17.294l0,0c0,9.599,17.253,17.379,46.692,17.379c29.441,0,46.694-7.78,46.694-17.379l19.615-186.075H80.326z"/>
		<path style="fill:#C93E3F;" d="M80.326,165.96l1.975,18.699c3.99,4.364,10.959,6.181,16.39,7.254
			c9.426,1.852,19.124,2.223,28.708,2.198c11.297-0.026,22.562-0.998,33.846-1.095c10.93-0.099,21.609,4.227,25.807,14.95
			c7.457,19.023,3.121,40.395,0.982,60.014c-2.23,20.416-1.793,41.006-4.396,61.409c-0.748,5.838-1.882,12.185-5.232,17.175
			c-3.49,5.2-10.289,7.443-16.189,8.328c-7.438,1.117-14.967,0.875-22.445,0.373c-7.276-0.485-14.733-0.504-21.805-2.486
			c-7.72-2.166-13.916-6.286-19.161-11.542l1.138,10.798c0,9.599,17.253,17.379,46.692,17.379c29.441,0,46.694-7.78,46.694-17.379
			l19.615-186.075H80.326z"/>
		<path style="fill:#E0DDC3;" d="M73.873,161.162c0,10.535,32.579,19.074,72.761,19.074c40.186,0,72.763-8.539,72.763-19.074
			v-10.365H73.873V161.162z"/>
		<path style="fill:#E0DDC3;" d="M138.013,150.797c1.18,0.752,2.291,1.415,3.196,1.977c5.614,3.471,11.122,6.637,14.32,12.727
			c2.721,5.176,2.994,10.107,1.623,14.532c35.201-1.331,62.244-9.273,62.244-18.87v-10.365H138.013z"/>
		<path style="fill:#FFFCDD;" d="M219.396,150.797c0,10.534-32.576,19.072-72.763,19.072c-40.182,0-72.761-8.538-72.761-19.072
			c0-10.533,32.579-19.07,72.761-19.07C186.82,131.727,219.396,140.264,219.396,150.797z"/>
		<path style="fill:#FFFFFF;" d="M131.547,160.599c-7.709-3.479-14.43-11.306-11.369-20.343c0.656-1.941,1.634-3.639,2.846-5.128
			c-25.682,2.37-43.977,8.491-43.977,15.669c0,9.234,30.261,16.721,67.587,16.721c5.308,0,10.463-0.152,15.417-0.44
			C151.932,166.217,140.83,164.795,131.547,160.599z"/>
		<path style="fill:#CFCDB5;" d="M203.51,150.799c0,7.044-25.463,12.756-56.876,12.756c-31.409,0-56.874-5.712-56.874-12.756
			c0-7.047,25.465-12.756,56.874-12.756C178.047,138.043,203.51,143.752,203.51,150.799z"/>
		<path style="fill:#E2DFC5;" d="M201.075,151.842c0,6.465-24.374,11.713-54.441,11.713c-30.065,0-54.44-5.248-54.44-11.713
			c0-6.473,24.374-11.717,54.44-11.717C176.701,140.125,201.075,145.369,201.075,151.842z"/>
		<g>
			<path style="fill:#CFCDB5;" d="M163.664,151.324c0,1.574-4.492,2.848-10.033,2.848s-10.033-1.273-10.033-2.848
				s4.492-2.849,10.033-2.849S163.664,149.75,163.664,151.324z"/>
			<path style="fill:#FFFFFF;" d="M161.555,152.182c0,1.099-3.547,1.99-7.924,1.99c-4.377,0-7.924-0.892-7.924-1.99
				c0-1.1,3.547-1.992,7.924-1.992C158.008,150.189,161.555,151.082,161.555,152.182z"/>
		</g>
		<g>
			<g>
				<path style="fill:#FFFFFF;" d="M96.59,183.59c0.467,22.613,2.327,45.112,4.205,67.645c1.105,13.262,2.186,26.525,3.189,39.795
					c0.607,8.035,1.184,16.073,1.74,24.113c0.604,8.738,0.455,17.916,2.449,26.462c0.512,2.192,3.54,1.517,3.707-0.502
					c0.709-8.532-0.803-17.444-1.564-25.96c-0.719-8.041-1.469-16.078-2.24-24.113c-1.274-13.271-2.627-26.533-3.988-39.795
					c-2.316-22.549-4.58-45.1-6.926-67.645C97.125,183.231,96.582,183.214,96.59,183.59L96.59,183.59z"/>
			</g>
		</g>
		<path style="fill:#FFFFFF;" d="M114.062,349.82c0,2.133-1.731,3.861-3.864,3.861c-2.129,0-3.86-1.729-3.86-3.861
			c0-2.133,1.731-3.862,3.86-3.862C112.33,345.958,114.062,347.688,114.062,349.82z"/>
		<g style="opacity:0.1;">
			<path style="fill:#FFFFFF;" d="M168.009,203.065c2.963-2.082,6.198-2.374,9.251-1.584c3.318,0.864,6.428,3.007,8.738,5.532
				c3.114,3.393,4.094,7.535,4.354,11.859c1.398,4.406,1.646,9.35,1.005,13.046c-0.568,3.26-2.244,6.907-5.888,7.461
				c-5.437,0.824-9.197-4.134-8.957-9.114c0.18-3.691,1.217-6.705,0.274-10.443c-0.711-2.829-4.161-5.096-6.254-6.864
				C167.275,210.205,163.014,206.578,168.009,203.065z"/>
			<path style="fill:#FFFFFF;" d="M178.291,247.249c-0.004,0.041,0.021-0.173,0.029-0.333c0.012-0.159,0.02-0.316,0.035-0.469
				c0-0.008-0.006-0.02-0.006-0.028c0-0.793,0.285-1.491,0.742-2.05c0.382-0.488,0.879-0.87,1.455-1.085
				c0.459-0.509,1.12-0.864,1.721-1.062c1.395-0.46,2.752,0.212,3.627,1.256c0.318,0.147,0.6,0.363,0.842,0.626
				c0.098,0.095,0.18,0.2,0.266,0.309c0.244,0.304,0.437,0.651,0.559,1.029c0.02,0.044,0.041,0.086,0.056,0.128
				c0.017,0.042,0.017,0.093,0.027,0.132c0.011,0.046,0.021,0.093,0.03,0.138c0.174,0.753-0.006,1.699-0.413,2.316
				c-0.056,0.086-0.114,0.164-0.171,0.239c-0.27,1.192-1.082,2.156-2.484,2.486c-0.258,0.06-0.529,0.114-0.814,0.163
				c-0.215,0.107-0.436,0.19-0.663,0.262c-0.127,0.044-0.258,0.078-0.39,0.108h-0.008c-0.094,0.021-0.191,0.038-0.291,0.046
				c-0.1,0.019-0.195,0.041-0.302,0.052c-0.789,0.091-1.608-0.321-2.2-0.89c-0.493-0.29-0.91-0.711-1.198-1.314
				c-0.296-0.618-0.497-1.178-0.464-1.876C178.279,247.376,178.287,247.311,178.291,247.249z"/>
		</g>
		<g>
			<path style="fill:#A7A9AC;" d="M184.068,268.794c0,14.858-16.713,26.901-37.332,26.901c-20.621,0-37.336-12.043-37.336-26.901
				c0-14.854,16.715-26.897,37.336-26.897C167.355,241.897,184.068,253.94,184.068,268.794z"/>
			<path style="fill:#FFFFFF;" d="M181.27,266.369c0,14.857-16.714,26.901-37.335,26.901c-20.622,0-37.333-12.044-37.333-26.901
				c0-14.856,16.711-26.898,37.333-26.898C164.556,239.471,181.27,251.513,181.27,266.369z"/>
			<g>
				<g>
					<path style="fill:#6D080F;" d="M132.254,270.267c0,1.094-0.23,2.029-0.697,2.798c-0.465,0.77-1.053,1.406-1.76,1.914
						c-0.707,0.506-1.482,0.877-2.318,1.11c-0.838,0.231-1.623,0.348-2.352,0.348c-0.827,0-1.684-0.131-2.563-0.396
						c-0.877-0.262-1.676-0.665-2.395-1.199c-0.716-0.537-1.309-1.211-1.771-2.022c-0.468-0.81-0.699-1.762-0.699-2.854
						c0-0.404,0.025-0.794,0.074-1.173c0.051-0.372,0.145-0.7,0.275-0.984c0.131-0.285,0.328-0.513,0.588-0.687
						c0.264-0.171,0.607-0.258,1.033-0.258c0.162,0,0.368,0.016,0.62,0.047c0.256,0.031,0.491,0.238,0.711,0.625
						c-0.28,0.972-0.351,1.855-0.21,2.654c0.143,0.803,0.424,1.484,0.847,2.038c0.425,0.557,0.956,0.993,1.594,1.304
						c0.635,0.316,1.318,0.471,2.043,0.471c1.173,0,2.097-0.287,2.774-0.865c0.676-0.574,1.016-1.4,1.016-2.476
						c0-0.89-0.158-1.704-0.471-2.442c-0.312-0.742-0.721-1.426-1.226-2.054c-0.506-0.627-1.066-1.214-1.683-1.762
						c-0.615-0.547-1.219-1.075-1.817-1.579c-0.593-0.507-1.149-1.006-1.665-1.488c-0.515-0.488-0.912-0.993-1.195-1.52
						c-0.083-0.14-0.185-0.32-0.318-0.533c-0.132-0.212-0.264-0.451-0.395-0.713c-0.131-0.266-0.242-0.545-0.331-0.839
						c-0.093-0.29-0.138-0.589-0.138-0.895c0-0.706,0.193-1.378,0.576-2.005c0.383-0.628,0.863-1.174,1.438-1.639
						c0.575-0.466,1.198-0.836,1.864-1.108c0.666-0.276,1.271-0.41,1.816-0.41c0.969,0,1.779,0.154,2.424,0.469
						c0.648,0.315,1.168,0.73,1.561,1.244c0.395,0.517,0.672,1.112,0.834,1.794c0.16,0.68,0.242,1.381,0.242,2.114
						c0,0.385-0.021,0.758-0.059,1.12c-0.043,0.367-0.129,0.69-0.258,0.976c-0.13,0.285-0.326,0.509-0.587,0.682
						c-0.263,0.171-0.609,0.257-1.054,0.257c-0.16,0-0.366-0.072-0.615-0.227c-0.248-0.148-0.424-0.298-0.527-0.441
						c-0.021-0.523-0.004-1.092,0.047-1.699c0.049-0.609,0.057-1.216,0.015-1.826c-0.021-0.181-0.127-0.398-0.319-0.65
						c-0.193-0.254-0.426-0.495-0.701-0.729c-0.271-0.235-0.55-0.428-0.834-0.578c-0.283-0.152-0.514-0.23-0.697-0.23
						c-0.326,0-0.604,0.139-0.836,0.414c-0.233,0.268-0.42,0.583-0.561,0.925c-0.143,0.343-0.248,0.668-0.32,0.976
						c-0.07,0.299-0.107,0.494-0.107,0.573c0,0.771,0.225,1.448,0.666,2.036c0.445,0.588,1.006,1.151,1.681,1.688
						c0.677,0.535,1.407,1.092,2.197,1.672c0.787,0.577,1.519,1.236,2.193,1.975c0.677,0.739,1.235,1.596,1.681,2.564
						C132.031,267.748,132.254,268.913,132.254,270.267z"/>
					<path style="fill:#6D080F;" d="M145.715,266.5c0,0.365-0.031,0.858-0.092,1.474c-0.063,0.62-0.172,1.284-0.334,1.993
						c-0.163,0.709-0.387,1.433-0.669,2.171c-0.286,0.741-0.66,1.409-1.124,2.006c-0.465,0.597-1.025,1.083-1.671,1.459
						c-0.649,0.376-1.409,0.563-2.28,0.563c-0.162,0-0.329,0.023-0.5,0.074c-0.173,0.051-0.361,0.076-0.563,0.076
						c-0.77,0-1.439-0.172-2.005-0.516c-0.567-0.346-1.055-0.789-1.459-1.338c-0.405-0.55-0.732-1.159-0.974-1.839
						c-0.24-0.679-0.435-1.362-0.576-2.052c-0.142-0.686-0.239-1.335-0.289-1.946c-0.049-0.606-0.074-1.11-0.074-1.515
						c0-0.589,0.025-1.271,0.074-2.052c0.05-0.783,0.158-1.577,0.318-2.384c0.163-0.812,0.398-1.611,0.699-2.406
						c0.305-0.786,0.715-1.491,1.23-2.108c0.517-0.616,1.145-1.112,1.886-1.489c0.737-0.372,1.635-0.561,2.689-0.561
						c0.849,0,1.582,0.217,2.2,0.652c0.619,0.435,1.135,0.992,1.55,1.673c0.417,0.678,0.755,1.428,1.018,2.249
						c0.265,0.819,0.462,1.612,0.593,2.383c0.133,0.772,0.225,1.463,0.275,2.082C145.688,265.771,145.715,266.219,145.715,266.5z
						 M142.523,265.741c-0.102-0.589-0.197-1.232-0.289-1.931c-0.092-0.697-0.228-1.395-0.409-2.092
						c-0.186-0.701-0.436-1.387-0.763-2.055c-0.323-0.667-0.757-1.273-1.304-1.822c-0.164-0.159-0.376-0.266-0.636-0.318
						c-0.268-0.052-0.479-0.064-0.641-0.047c-0.264,0.184-0.531,0.627-0.807,1.324c-0.273,0.697-0.525,1.498-0.758,2.398
						c-0.234,0.903-0.419,1.81-0.563,2.72c-0.143,0.911-0.213,1.672-0.213,2.28c0,0.162,0.016,0.482,0.045,0.969
						c0.029,0.486,0.095,1.057,0.199,1.706c0.102,0.649,0.236,1.325,0.408,2.032c0.173,0.711,0.4,1.369,0.685,1.975
						c0.282,0.609,0.633,1.107,1.049,1.489c0.413,0.388,0.905,0.575,1.475,0.575c0.321,0,0.607-0.12,0.849-0.36
						c0.243-0.241,0.444-0.552,0.609-0.928c0.161-0.374,0.299-0.79,0.41-1.247c0.109-0.452,0.205-0.9,0.286-1.335
						c0.083-0.436,0.148-0.831,0.198-1.187c0.051-0.352,0.105-0.611,0.168-0.775c0-0.039-0.006-0.095-0.016-0.164
						c-0.01-0.073-0.02-0.219-0.029-0.44c-0.01-0.227-0.018-0.55-0.018-0.972C142.461,267.111,142.482,266.51,142.523,265.741z"/>
					<path style="fill:#6D080F;" d="M158.566,274.676c-0.062,0.344-0.168,0.623-0.32,0.834c-0.152,0.211-0.318,0.377-0.5,0.487
						c-0.184,0.11-0.373,0.187-0.563,0.229c-0.195,0.042-0.371,0.059-0.533,0.059c-0.224,0-0.41-0.015-0.561-0.044
						c-0.155-0.032-0.277-0.105-0.381-0.229c-0.1-0.12-0.188-0.291-0.259-0.517c-0.069-0.223-0.138-0.527-0.196-0.91
						c-0.994,0.649-1.83,1.094-2.508,1.336c-0.678,0.245-1.373,0.363-2.082,0.363c-0.322,0-0.596,0-0.819,0
						c-0.224,0-0.434-0.033-0.64-0.102c-0.2-0.074-0.41-0.198-0.621-0.368c-0.212-0.172-0.461-0.429-0.747-0.774
						c-0.239-0.281-0.436-0.652-0.589-1.105c-0.154-0.459-0.271-0.858-0.35-1.201c-0.104-0.527-0.189-1.145-0.26-1.853
						c-0.069-0.711-0.119-1.4-0.152-2.066c-0.029-0.67-0.051-1.252-0.061-1.748c-0.008-0.495-0.016-0.797-0.016-0.897
						c0-0.483,0.043-1.124,0.121-1.914c0.082-0.79,0.238-1.585,0.472-2.387c0.233-0.8,0.562-1.544,0.987-2.232
						c0.428-0.687,0.973-1.175,1.643-1.458c0.303-0.141,0.586-0.273,0.852-0.394c0.26-0.122,0.533-0.228,0.805-0.317
						c0.273-0.091,0.576-0.167,0.911-0.23c0.332-0.06,0.733-0.09,1.2-0.09c0.16,0,0.411,0.023,0.745,0.076
						c0.333,0.048,0.651,0.126,0.956,0.227c0.08-0.224,0.111-0.507,0.093-0.85c-0.023-0.348-0.052-0.647-0.093-0.912
						c-0.02-0.225-0.053-0.492-0.092-0.806c-0.042-0.313-0.074-0.618-0.105-0.913c-0.029-0.293-0.061-0.56-0.094-0.802
						c-0.029-0.245-0.044-0.417-0.044-0.518c0-0.162,0.076-0.33,0.227-0.501c0.153-0.173,0.334-0.322,0.549-0.454
						c0.212-0.131,0.43-0.246,0.65-0.333c0.227-0.093,0.406-0.14,0.55-0.14h0.362c0.182,0,0.321,0.065,0.41,0.196
						c0.092,0.132,0.218,0.278,0.381,0.44c0.1,1.38,0.211,2.751,0.336,4.119c0.12,1.364,0.18,2.74,0.18,4.115L158.566,274.676z
						 M155.526,268.75l-0.151-7.9c-0.02-0.141-0.142-0.348-0.365-0.622c-0.222-0.271-0.49-0.547-0.806-0.819
						c-0.314-0.273-0.638-0.518-0.972-0.73c-0.336-0.214-0.634-0.318-0.895-0.318c-0.406,0-0.752,0.146-1.033,0.441
						c-0.285,0.293-0.529,0.655-0.73,1.094c-0.203,0.434-0.369,0.91-0.501,1.428c-0.131,0.517-0.232,0.997-0.307,1.442
						c-0.069,0.448-0.123,0.976-0.165,1.581c0.042,1.215,0.07,2.154,0.091,2.822c0.021,0.671,0.032,1.172,0.032,1.507
						c0,0.333-0.012,0.545-0.032,0.623c-0.02,0.081-0.049,0.142-0.091,0.181c0.08,0.387,0.127,0.789,0.137,1.216
						c0.012,0.428,0.045,0.843,0.106,1.247c0.019,0.119,0.076,0.334,0.165,0.637c0.094,0.303,0.215,0.619,0.367,0.944
						c0.151,0.321,0.32,0.609,0.5,0.864c0.184,0.252,0.386,0.379,0.607,0.379h0.457c0.303,0,0.648-0.157,1.033-0.47
						c0.383-0.315,0.744-0.669,1.079-1.064c0.335-0.396,0.623-0.778,0.865-1.156c0.241-0.374,0.372-0.622,0.393-0.743
						c0.043-0.221,0.078-0.466,0.107-0.729c0.03-0.265,0.051-0.519,0.061-0.762c0.012-0.24,0.021-0.463,0.031-0.666
						C155.521,268.975,155.526,268.832,155.526,268.75z"/>
					<path style="fill:#6D080F;" d="M171.598,263.74c-0.04,1.638-0.061,2.907-0.061,3.81c0,0.903,0.007,1.57,0.016,2.005
						c0.012,0.439,0.021,0.706,0.03,0.807c0.011,0.101,0.015,0.17,0.015,0.211c-0.061,0.771-0.089,1.565-0.089,2.385
						c0,0.821-0.143,1.557-0.427,2.205c-0.042,0.082-0.117,0.161-0.227,0.245c-0.113,0.078-0.24,0.149-0.379,0.21
						c-0.145,0.062-0.29,0.104-0.44,0.137c-0.153,0.033-0.271,0.047-0.351,0.047h-1.398c0.023-0.223,0.031-0.468,0.031-0.73
						c0-0.262-0.041-0.516-0.121-0.76c-0.163,0.224-0.395,0.415-0.699,0.576c-0.304,0.165-0.633,0.306-0.988,0.428
						c-0.353,0.119-0.703,0.21-1.047,0.273c-0.346,0.06-0.628,0.092-0.852,0.092c-0.729,0-1.338-0.13-1.822-0.38
						c-0.487-0.256-0.879-0.573-1.17-0.955c-0.295-0.387-0.501-0.813-0.623-1.278c-0.123-0.467-0.184-0.913-0.184-1.339
						c0-0.971,0.178-1.886,0.533-2.748c0.352-0.86,0.854-1.657,1.502-2.385c0.65-0.73,1.443-1.375,2.387-1.945
						c0.943-0.567,2.01-1.033,3.204-1.397c-0.019-0.443-0.105-1.018-0.257-1.718c-0.151-0.699-0.38-1.373-0.684-2.02
						c-0.304-0.646-0.68-1.207-1.125-1.672c-0.444-0.466-0.981-0.697-1.607-0.697c-0.286,0-0.523,0.084-0.717,0.256
						c-0.193,0.176-0.4,0.419-0.623,0.746c-0.223,0.345-0.375,0.713-0.455,1.111c-0.08,0.391-0.135,0.802-0.166,1.227
						c-0.031,0.427-0.055,0.854-0.075,1.278c-0.021,0.425-0.074,0.829-0.152,1.218c-0.364,0.28-0.696,0.443-0.987,0.482
						c-0.297,0.04-0.674,0.062-1.139,0.062c-0.205,0-0.326-0.008-0.367-0.017c-0.041-0.008-0.142-0.01-0.303-0.01v-2.617
						c0-0.85,0.201-1.583,0.605-2.203c0.408-0.618,0.918-1.133,1.537-1.549c0.617-0.415,1.29-0.721,2.02-0.91
						c0.729-0.193,1.406-0.291,2.036-0.291c1.173,0,2.106,0.197,2.796,0.594c0.688,0.391,1.225,0.943,1.609,1.64
						c0.385,0.698,0.652,1.523,0.805,2.478C171.342,261.592,171.48,262.625,171.598,263.74z M168.561,271.089V265.5
						c-1.457,0.545-2.607,1.311-3.448,2.295c-0.839,0.982-1.261,2.108-1.261,3.388c0,0.039,0.021,0.187,0.063,0.439
						c0.041,0.253,0.11,0.523,0.21,0.807c0.103,0.282,0.233,0.541,0.396,0.777c0.162,0.233,0.374,0.344,0.638,0.344
						c0.082,0,0.201-0.066,0.367-0.211c0.16-0.141,0.332-0.312,0.514-0.518c0.184-0.198,0.365-0.397,0.547-0.591
						c0.182-0.192,0.334-0.351,0.456-0.469c0.222-0.224,0.474-0.378,0.76-0.461C168.086,271.222,168.337,271.15,168.561,271.089z"/>
				</g>
				<g>
					<g>
						<path style="fill:#6D080F;" d="M130.432,279.989c9.652,6.653,22.516,5.982,32.986,1.674c1.592-0.655,0.896-3.278-0.721-2.613
							c-4.867,2.003-9.639,3.377-14.922,3.723c-5.971,0.391-11.6-1.398-17.273-2.952
							C130.398,279.791,130.348,279.932,130.432,279.989L130.432,279.989z"/>
					</g>
				</g>
			</g>
		</g>
		<g>
			<path style="fill:#FFFFFF;" d="M149.734,71.56v79.703c0,0.774,1.844,1.406,4.113,1.406c2.273,0,4.115-0.632,4.115-1.406V71.56
				H149.734z"/>
			<g>
				<path style="fill:#F6958E;" d="M153.848,152.669c0.257,0,0.5-0.01,0.738-0.025V71.56h-1.475v81.084
					C153.35,152.659,153.596,152.669,153.848,152.669z"/>
				<path style="fill:#F6958E;" d="M151.213,152.334V71.56h-1.479v79.703C149.734,151.694,150.315,152.074,151.213,152.334z"/>
				<path style="fill:#F6958E;" d="M156.487,71.56v80.774c0.893-0.26,1.476-0.64,1.476-1.071V71.56H156.487z"/>
			</g>
		</g>
	</g>
</g>
<g>
	<path style="fill:#D1D3D4;" d="M382.409,371.508c-3.05,16.752-124.138,31.912-191.69,25.996
		c-42.31-3.704-63.799-11.032-77.305-45.412c-6.256-15.925,59.607-20.49,126.322-8.345
		C306.453,355.891,385.459,354.754,382.409,371.508z"/>
	<g>
		<g>
			<path style="fill:#D97120;" d="M347.376,326.807c0.333,10.88-134.281,57.873-190.589,52.956
				c-13.662-1.193-33.002-36.362-31.228-46.179c2.405-13.312,23.07-91.786,107.113-92.248
				C313.09,240.889,346.962,313.289,347.376,326.807z"/>
		</g>
		<g>
			<path style="fill:#FFD346;" d="M318.843,312.126c0,0,42.798-19.19,37.69-24.486c-5.104-5.294-29.194-12.235-52.061-24.434
				c-22.863-12.197-51.374-30.792-56.031-31.19c-4.662-0.402-30.565,58.672-30.565,58.672L318.843,312.126z"/>
			<path style="fill:#FFDC65;" d="M318.843,312.126c0,0,33.567-15.622,28.464-20.919c-5.103-5.293-21.611-9.803-44.475-22.001
				c-22.868-12.199-46.883-30.159-51.539-30.559c-4.661-0.401-27.094,53.382-27.094,53.382L318.843,312.126z"/>
			<g>
				<g>
					<path style="fill:#FFFFFF;" d="M278.659,251.847c0,0-0.815-0.419-2.242-1.15c-1.419-0.742-3.442-1.806-5.843-3.118
						c-2.398-1.3-5.199-2.816-8.197-4.441c-1.504-0.785-3.057-1.598-4.635-2.422c-1.576-0.809-3.21-1.572-4.822-2.221
						c-0.788-0.311-1.648-0.613-2.28-0.684l-0.109-0.012l-0.056-0.008l-0.027-0.003c-0.068,0.001,0.08-0.005,0.057-0.003
						l-0.021,0.001c-0.111,0.005-0.255,0.014-0.236,0.022c-0.032,0-0.219,0.059-0.34,0.107c-0.283,0.123-0.594,0.318-0.897,0.551
						c-1.239,0.947-2.362,2.295-3.364,3.606c-0.996,1.335-1.943,2.665-2.787,3.968c-0.839,1.305-1.641,2.542-2.35,3.705
						c-1.424,2.324-2.588,4.287-3.402,5.664c-0.816,1.378-1.282,2.166-1.282,2.166s0.284-0.873,0.853-2.374
						c0.574-1.498,1.434-3.625,2.613-6.116c0.594-1.242,1.242-2.592,2.014-3.977c0.771-1.386,1.595-2.852,2.594-4.296
						c1.016-1.438,2.075-2.925,3.646-4.231c0.405-0.318,0.851-0.624,1.395-0.871c0.297-0.12,0.536-0.224,0.953-0.295
						c0.24-0.043,0.324-0.04,0.439-0.05l0.021-0.001l0.099-0.003l0.058,0.003l0.114,0.008l0.23,0.016
						c1.178,0.128,2.049,0.469,2.963,0.798c1.785,0.686,3.429,1.54,5.041,2.385c1.611,0.841,3.143,1.751,4.619,2.638
						c1.478,0.879,2.879,1.774,4.193,2.643c1.32,0.856,2.551,1.692,3.673,2.486C275.85,249.477,278.659,251.847,278.659,251.847z"/>
				</g>
			</g>
			<g>
				<g>
					<path style="fill:#FFFFFF;" d="M352.531,291.192c-0.015,0.005,0.043-0.138-0.004-0.352c-0.034-0.216-0.189-0.503-0.455-0.807
						c-0.545-0.611-1.557-1.282-2.807-2.02c-1.261-0.727-2.773-1.521-4.406-2.362c-1.643-0.83-3.395-1.717-5.147-2.604
						c-0.875-0.451-1.751-0.901-2.613-1.346c-0.866-0.436-1.699-0.909-2.522-1.336c-1.637-0.869-3.153-1.71-4.441-2.465
						c-1.293-0.741-2.353-1.402-3.095-1.875c-0.74-0.472-1.155-0.764-1.155-0.764s0.5,0.092,1.352,0.309
						c0.853,0.217,2.064,0.549,3.484,1.025c1.427,0.465,3.066,1.067,4.793,1.787c0.859,0.368,1.758,0.728,2.646,1.148
						c0.895,0.406,1.79,0.85,2.683,1.298c1.781,0.908,3.523,1.903,5.109,2.928c1.588,1.019,3.019,2.074,4.156,3.108
						c1.141,1.022,2.001,2.036,2.381,2.906c0.197,0.43,0.229,0.826,0.18,1.074C352.622,291.103,352.518,291.182,352.531,291.192z"/>
				</g>
			</g>
			<g>
				<g>
					<path style="fill:#FFFFFF;" d="M343.701,293.635c0,0,0.017-0.081,0.007-0.231c-0.04-0.144-0.134-0.343-0.343-0.553
						c-0.397-0.429-1.115-0.921-2.057-1.489c-1.898-1.128-4.742-2.519-8.174-4.148c-3.449-1.604-7.475-3.474-11.787-5.478
						c-2.15-1.015-4.394-2.026-6.645-3.114c-2.255-1.082-4.545-2.181-6.836-3.279c-2.274-1.138-4.549-2.274-6.787-3.394
						c-2.241-1.117-4.409-2.294-6.517-3.415c-4.204-2.263-8.07-4.497-11.293-6.571c-3.231-2.058-5.809-3.978-7.474-5.484
						c-0.838-0.747-1.439-1.398-1.815-1.865c-0.382-0.464-0.554-0.732-0.554-0.732s0.211,0.24,0.652,0.638
						c0.431,0.407,1.125,0.935,2.025,1.571c1.81,1.266,4.543,2.853,7.888,4.639c3.351,1.776,7.313,3.758,11.575,5.856
						c4.273,2.081,8.832,4.302,13.392,6.521c2.276,1.124,4.552,2.248,6.792,3.354c2.247,1.097,4.43,2.235,6.557,3.311
						c4.242,2.172,8.174,4.268,11.486,6.181c3.316,1.9,6.017,3.623,7.791,5.003c0.891,0.685,1.533,1.313,1.885,1.813
						c0.182,0.244,0.256,0.48,0.271,0.639C343.728,293.558,343.696,293.635,343.701,293.635z"/>
				</g>
			</g>
		</g>
		<g>
			<path style="fill:#FFD346;" d="M163.156,306.69c0,0-42.908-18.939-37.838-24.261c5.072-5.326,29.123-12.41,51.918-24.744
				c22.791-12.333,51.188-31.096,55.846-31.525c4.654-0.428,30.912,58.492,30.912,58.492L163.156,306.69z"/>
			<path style="fill:#FFDC65;" d="M163.156,306.69c0,0-33.66-15.425-28.59-20.749c5.072-5.324,21.556-9.932,44.348-22.265
				c22.792-12.333,46.699-30.436,51.358-30.866c4.653-0.428,27.405,53.221,27.405,53.221L163.156,306.69z"/>
			<g>
				<g>
					<path style="fill:#FFFFFF;" d="M202.982,246.173c0,0,2.795-2.388,7.285-5.553c1.117-0.8,2.343-1.644,3.658-2.508
						c1.309-0.876,2.703-1.78,4.178-2.668c1.47-0.896,2.996-1.815,4.604-2.665c1.607-0.854,3.245-1.719,5.026-2.415
						c0.912-0.334,1.781-0.681,2.958-0.814l0.23-0.018l0.115-0.008l0.057-0.004c-0.056-0.002,0.109,0.002,0.1,0.002l0.021,0.001
						c0.113,0.01,0.199,0.007,0.438,0.048c0.417,0.069,0.657,0.171,0.955,0.29c0.546,0.244,0.993,0.547,1.399,0.863
						c1.578,1.297,2.646,2.777,3.67,4.21c1.008,1.439,1.84,2.9,2.618,4.28c0.78,1.381,1.437,2.727,2.038,3.966
						c1.194,2.484,2.065,4.606,2.648,6.101c0.577,1.498,0.866,2.369,0.866,2.369s-0.471-0.785-1.295-2.159
						c-0.823-1.371-1.997-3.328-3.435-5.644c-0.716-1.159-1.525-2.393-2.373-3.691c-0.85-1.298-1.805-2.623-2.809-3.952
						c-1.01-1.306-2.141-2.646-3.385-3.587c-0.305-0.23-0.617-0.425-0.9-0.546c-0.121-0.048-0.309-0.105-0.342-0.105
						c0.019-0.01-0.124-0.018-0.236-0.022l-0.021-0.001c-0.023-0.001,0.127,0.004,0.057,0.003l-0.027,0.004l-0.055,0.007
						l-0.109,0.013c-0.632,0.074-1.49,0.382-2.275,0.697c-1.609,0.657-3.238,1.431-4.81,2.249c-1.573,0.834-3.122,1.655-4.62,2.449
						c-2.989,1.644-5.779,3.177-8.172,4.491c-2.392,1.325-4.408,2.401-5.823,3.152C203.795,245.75,202.982,246.173,202.982,246.173z
						"/>
				</g>
			</g>
			<g>
				<g>
					<path style="fill:#FFFFFF;" d="M129.346,285.959c0.014-0.01-0.092-0.089-0.141-0.344c-0.051-0.248-0.022-0.645,0.172-1.075
						c0.374-0.873,1.229-1.893,2.363-2.921c1.131-1.042,2.556-2.106,4.137-3.135c1.58-1.033,3.316-2.04,5.092-2.959
						c0.891-0.453,1.783-0.902,2.676-1.313c0.885-0.427,1.782-0.791,2.639-1.164c1.723-0.73,3.359-1.343,4.783-1.815
						c1.418-0.486,2.627-0.824,3.479-1.047c0.851-0.222,1.35-0.316,1.35-0.316s-0.413,0.295-1.15,0.77
						c-0.738,0.477-1.795,1.145-3.085,1.894c-1.283,0.762-2.796,1.612-4.427,2.491c-0.819,0.432-1.649,0.909-2.514,1.351
						c-0.859,0.449-1.732,0.906-2.605,1.361c-1.746,0.897-3.493,1.795-5.131,2.635c-1.628,0.85-3.135,1.654-4.393,2.389
						c-1.244,0.746-2.252,1.423-2.793,2.038c-0.266,0.306-0.417,0.593-0.449,0.81C129.302,285.822,129.36,285.964,129.346,285.959z"
						/>
				</g>
			</g>
			<g>
				<g>
					<path style="fill:#FFFFFF;" d="M138.191,288.345c0.004,0-0.028-0.077-0.043-0.228c0.015-0.158,0.088-0.396,0.268-0.642
						c0.348-0.502,0.987-1.134,1.873-1.824c1.767-1.391,4.456-3.129,7.762-5.049c3.301-1.931,7.22-4.051,11.449-6.248
						c2.119-1.088,4.297-2.238,6.536-3.349c2.233-1.119,4.503-2.257,6.772-3.395c4.545-2.246,9.092-4.493,13.354-6.6
						c4.249-2.122,8.198-4.127,11.539-5.924c3.334-1.805,6.058-3.407,7.859-4.684c0.897-0.642,1.588-1.174,2.018-1.583
						c0.438-0.4,0.648-0.642,0.648-0.642s-0.171,0.27-0.55,0.734c-0.373,0.47-0.971,1.125-1.805,1.876
						c-1.655,1.517-4.221,3.451-7.439,5.528c-3.211,2.093-7.064,4.35-11.254,6.637c-2.102,1.134-4.262,2.323-6.496,3.453
						c-2.232,1.133-4.5,2.283-6.768,3.433c-2.283,1.112-4.567,2.226-6.816,3.32c-2.244,1.101-4.48,2.125-6.626,3.153
						c-4.3,2.028-8.313,3.922-11.754,5.546c-3.422,1.649-6.257,3.058-8.148,4.196c-0.938,0.574-1.653,1.07-2.048,1.502
						c-0.208,0.211-0.3,0.411-0.34,0.555C138.174,288.264,138.196,288.346,138.191,288.345z"/>
				</g>
			</g>
		</g>
		<g>
			<path style="fill:#77AD3C;" d="M157.342,316.711c-5.084-1.273-10.1-2.756-15.084-4.189c-4.767-1.37-10.515-1.692-13.607-6.304
				c-3.006-4.482-0.952-10.79,4.352-11.838c2.68-0.533,4.479,0.543,6.858,0.972c4.407,0.797,3.481-1.007,4.403-4.175
				c1.238-4.24,2.015-2.01,5.016-1.555c3.053,0.464,3.553-1.374,3.996-4.435c0.912-6.223-0.513-11.854,7.854-9.9
				c2.781,0.648,5.405,2.444,8.136,0.571c2.494-1.703,1.676-3.868,2.497-6.269c0.935-2.738,3.075-4.525,6.021-4.437
				c2.829,0.088,4.212,2.878,7.062,2.877c3.842,0.001,2.895-2.913,4.996-5.148c1.779-1.901,4.844-1.856,7.291-1.331
				c2.449,0.526,4.906,2.827,7.373,1.07c1.841-1.311,2.369-4.811,3.576-6.741c2.979-4.773,8.227-8.456,13.951-7.229
				c5.615,1.202,8.551,7.86,13.945,10.112c5.473,2.278,12.086,2.789,17.66,0.638c5.441-2.103,12.122-5.568,15.463,0.753
				c1.617,3.061,1.32,3.147,5.157,3.451c3.136,0.251,3.913,0.697,6.48-1.188c4.871-3.587,9.238-6.072,14.042-0.784
				c1.323,1.456,2.471,5.036,4.153,6.011c2.398,1.389,6.166-0.196,8.057-1.413c2.415-1.554,5.215-4.106,8.377-3.952
				c3.22,0.153,4.111,3.07,5.393,5.721c1.265,2.62,0.339,4.818,1.283,7.384c0.943,2.573,3.89,2.738,6.66,2.857
				c4.177,0.181,5.795,2.055,8.254,5.89c2.174,3.39,0.065,4.091,0.115,7.928c0.093,7.193,7.143,7.423,12.017,9.897
				c3.446,1.752,3.964,4.849,3.275,8.853c-0.698,4.058-3.441,5.749-7.127,6.959c-3.487,1.144-6.351-0.219-9.788-1.058
				c-5.682-1.388-11.434-2.919-17.331-3.114c-7.505-0.252-13.095,2.978-19.503,6.24c-8.229,4.188-16.791,3.832-25.806,3.544
				c-5.069-0.162-10.237-0.049-15.284-0.483c-5.467-0.47-10.654-3.006-15.522-5.46c-9.39-4.727-15.107-12.314-26.596-11.777
				c-9.313,0.432-19.718,5.061-28.571,8.029c-5.414,1.816-13.355,3.176-18.635,0.066L157.342,316.711z"/>
			<path style="fill:#8AC645;" d="M327.596,327.162c5.127-1.137,10.195-2.487,15.229-3.792c4.815-1.243,10.571-1.415,13.823-5.944
				c3.168-4.402,1.346-10.754-3.919-11.945c-2.66-0.602-4.495,0.423-6.894,0.789c-4.428,0.682-3.44-1.095-4.246-4.286
				c-1.086-4.271-1.943-2.064-4.954-1.687c-3.075,0.385-3.502-1.465-3.837-4.538c-0.689-6.242,0.94-11.835-7.494-10.102
				c-2.807,0.575-5.489,2.302-8.153,0.36c-2.431-1.77-1.534-3.91-2.268-6.337c-0.833-2.759-2.915-4.602-5.86-4.588
				c-2.827,0.011-4.313,2.767-7.164,2.688c-3.84-0.102-2.785-2.989-4.803-5.278c-1.711-1.944-4.777-1.984-7.242-1.522
				c-2.466,0.462-5.007,2.699-7.408,0.878c-1.793-1.36-2.2-4.871-3.336-6.833c-2.801-4.849-7.912-8.667-13.681-7.589
				c-5.652,1.054-8.827,7.632-14.304,9.737c-5.553,2.137-12.178,2.471-17.673,0.176c-5.362-2.244-11.917-5.89-15.482,0.344
				c-1.728,3.016-1.436,3.113-5.278,3.317c-3.146,0.167-3.942,0.593-6.436-1.36c-4.739-3.712-9.016-6.311-14.01-1.15
				c-1.371,1.419-2.648,4.967-4.367,5.896c-2.444,1.325-6.154-0.355-8.001-1.622c-2.357-1.611-5.063-4.239-8.23-4.172
				c-3.223,0.071-4.218,2.961-5.599,5.58c-1.355,2.582-0.508,4.806-1.547,7.346c-1.035,2.545-3.986,2.635-6.762,2.682
				c-4.181,0.071-5.861,1.898-8.461,5.67c-2.295,3.327-0.209,4.086-0.399,7.92c-0.349,7.186-7.406,7.229-12.365,9.573
				c-3.514,1.665-4.14,4.747-3.597,8.764c0.552,4.076,3.234,5.838,6.871,7.143c3.443,1.237,6.359-0.048,9.822-0.796
				c5.728-1.24,11.537-2.619,17.438-2.66c7.512-0.054,12.981,3.322,19.268,6.748c8.071,4.404,16.645,4.277,25.664,4.223
				c5.072-0.029,10.232,0.221,15.293-0.079c5.483-0.327,10.76-2.727,15.715-5.051c9.556-4.479,15.545-11.912,27.008-11.074
				c9.296,0.679,19.522,5.579,28.271,8.777c5.343,1.956,13.229,3.524,18.623,0.555L327.596,327.162z"/>
			<path style="fill:#FFFFFF;" d="M176.842,295.66c-4.504-2.734-7.221-6.355-12.699-7.928c-3.503-1.002-8.617-2.247-10.989,1.198
				c-2.436,3.542-2.304,9.019,1.877,10.504c2.385,0.848,10.807,1.815,10.696,5.483c-5.488,0.314-10.334-2.177-15.577-1.099
				c-3.964,0.811-10.317,3.428-13.349,6.012c-1.252,1.065-3.057,5.108-1.715,6.632c2.292,2.593,3.822-1.748,5.054-3.012
				c3.343-3.412,11.196-6.255,15.871-6.113c4.3,0.125,8.14,2.95,12.372,2.569c3.965-0.358,8.367-4.673,10.089-8.311L176.842,295.66z
				"/>
			<path style="fill:#FFFFFF;" d="M166.42,281.188c-0.197-2.583,0.873-5.859,1.675-8.216c3.211-0.69,5.454,8.426,9.013,9.433
				c0.604-3.646-1.681-6.134-1.846-9.479c1.732,0.233,3.058,1.721,4.577,2.483c1.786,0.893,3.807,0.814,5.48,1.959
				c2.519,1.722,4.208,5.57,6.767,6.935c-0.568-5.86,4.613-8.468,8.591-10.5c7.052-3.608-0.993-7.952-5.622-5.397
				c-4.574,2.52-5.037,7.76-11.382,6.336c-3.77-0.844-8.348-6.494-12.372-5.466c-4.057,1.033-4.663,7.814-5.529,10.928
				L166.42,281.188z"/>
			<path style="fill:#FFFFFF;" d="M269.625,259.137c-3.852-0.1-9.814,1.928-12.785,4.611c-3.213,2.9-5.178,7.465-8.057,10.342
				c-0.274-1.136-0.367-2.408-0.693-3.557c-4.633-0.207-9.459,0.449-13.699-0.887c-3.994-1.26-8.356-4.059-12.696-2.395
				c-2.044,0.785-3.337,2.527-5.218,3.671c-2.025,1.233-5.395,1.843-1.545,3.729c1.515,0.744,5.236,0.257,6.836,0.019
				c2.889-0.429,2.941-0.016,5.48,0.836c0.36-2.398,17.405-2.693,20.189-2.655c0.064,1.922,2.354,8.3,4.033,9.429
				c3.407,2.293,4.021-4.562,5.215-6.808c1.57-2.957,3.295-7.014,6.094-8.952c1.516-1.047,3.453-0.95,4.895-2.09
				c1.55-1.23,1.854-3.388,2.275-3.976"/>
			<path style="fill:#FFFFFF;" d="M280.372,271.622c0.355-0.605,0.771,1.515,1.944,2.218c1.17,0.695,2.909,0.45,4.238,0.389
				c2.428-0.115,5.174-0.571,7.743-0.447c3.335,0.159,2.558,0.951,5.196,3.097c1.92,1.563,4.76,2.53,7.252,2.197
				c3.103-0.415,4.509-2.673,6.584,0.212c1.225,1.707,1.288,4.359,2.623,6.258c3.785,5.388,8.666,0.936,13.189,3.716
				c2.139,1.313,2.599,5.173,2.293,7.455c-1.955-0.721-3.874-3.215-5.807-3.556c-2.592-0.46-5.032,1.113-7.81,0.632
				c-6.691-1.167-6.965-6.486-10.42-10.765c-2.107-2.609-4.499-1.221-7.176-2.265c-2.236-0.87-2.488-3.435-4.207-4.292
				c-4.585-2.291-11.432,2.924-14.904-2.613c-0.322-0.519-0.641-1.549-0.741-1.904"/>
			<path style="fill:#FFFFFF;" d="M338.012,322.809c3.701-2.027,18.346-2.36,17.857-8.968c-2.357-0.391-4.158,1.288-6.414,0.927
				c-0.322-2.76,3.762-1.913,3.152-4.869c-2.891-0.662-5.973,2.355-8.681,2.929c-0.144-1.551,0.585-2.793,0.868-4.207
				c-4.974,0.291-3.317-1.566-5.162-4.644c-0.848-1.419-4.639-4.167-5.548-1.949c-0.905,2.204,4.03,4.634,4.502,6.836
				c0.334,1.549-1.413,2.102,0.394,3.456c1.035,0.775,3.591,0.205,4.855,0.288c-0.688,0.873-1.709,1.542-2.534,2.178
				c1.703,0.629,3.556,0.885,5.448,0.76c-0.12,1.565-15.205,2.986-12.642,7.617"/>
		</g>
		<g>
			<path style="fill:#77AD3C;" d="M150.48,362.316c1.38,1.654,1.189,1.588-0.432,3.9c-3.354,4.777,2.059,5.459,5.923,6.413
				c2.48,0.612,4.345,1.957,5.532,3.705c13.21-2.55,26.842-0.841,40.504-1.438c10.062-0.439,20.069-1.255,30.07-1.56
				c-1.325-2.328-4.481-3.868-7.233-4.7c-5.948-1.798-13.794-3.286-18.03-6.657c-5.224-4.158-1.918-10.555-2.302-16.797
				c-0.2-3.244-0.466-6.65-2.409-9.031c-1.792-2.194-4.047-4.136-6.054-6.19c-3.564-3.653-6.89-7.17-13.494-8.054
				c-5.144-0.691-9.917-1.079-12.88-4.129c-2.327-2.391-3.59-5.467-4.934-8.438c-0.81-1.793-0.988-3.654-3.313-4.376
				c-2.453-0.765-4.878-0.897-8.224,1.066c-3.299,1.94-5.415,3.844-5.284,6.147c0.183,3.252,2.969,6.113-2.401,10.109
				c-2.862,2.133-4.278,1.701-5.914,4.408c-1.855,3.068-2.584,4.727-0.965,6.441c1.07,1.145,2.183,2.38,0.644,4.16
				c-1.533,1.78-3.576,2.633-5.016,4.564c-1.457,1.956-3.277,3.911-2.039,5.245c1.209,1.307,4.306,0.989,6.488,1.068
				c1.711,0.065,4.482,0.652,4.442,2.349c-0.026,1.189-2.236,3.606-2.776,4.918c-1.961,4.778,1.738,5.102,6.48,5.017
				C149.359,360.414,149.354,360.964,150.48,362.316z"/>
			<path style="fill:#8AC645;" d="M149.559,343.807c1.538,1.545-1.08,2.727-1.955,4.773c-0.743,1.733,0.514,2.941,1.896,3.643
				c1.381,0.701,4.134,0.456,3.768,2.391c-0.271,1.445-2.74,3.535-3.739,5.053c-2.473,3.762-3.2,7.842,0.032,9.486
				c3.165,1.612,9.447-0.775,13.328,0.186c3.586,0.889,6.397,2.955,7.316,5.879c10.455-0.783,21.121,0.148,31.803-0.319
				c12.096-0.527,24.115-1.601,36.138-1.669c-0.115-0.098-0.254-0.177-0.365-0.277c-3.192-2.886-2.948-6.865-3.007-11.191
				c-0.076-5.553-3.773-8.809-7.597-12.274c-2.151-1.953-4.13-4.091-6.482-5.889c-2.545-1.946-6.566-2.671-10.392-3.313
				c-7.379-1.237-15.486,0.532-19.669-4.376c-3.389-3.978-3.997-10.641-5.26-15.795c-0.771-3.152-2.902-7.073-7.398-7.527
				l-2.074-5.952c-3.006-1.363-6.15-2.584-9.242-3.818c-2.959-1.183-5.502-3.321-10.271-2.088c-4.645,1.193-8.658,5.401-7.345,8.099
				c0.662,1.362,2.205,1.511,3.487,2.24c2.372,1.339,0.622,1.936-1.441,4.006c-2.757,2.771-0.738,1.89,0.811,2.851
				c1.576,0.979,0.367,2.165-1.803,3.984c-4.408,3.706-9.296,6.153-4.454,8.471c1.612,0.771,4.035,0.861,3.694,2.964
				c-0.313,1.918-2.299,2.749-3.814,4.368c-1.728,1.842-2.239,3.666-0.993,4.801C145.725,343.601,148.424,342.66,149.559,343.807z"
				/>
			<path style="fill:#FFFFFF;" d="M157.902,368.992c3.529-0.352,7.784-2.102,11.154-2.567c-0.734,0.731-1.656,1.468-2.382,2.225
				c1.79,1.91,4.31,3.421,5.081,5.804c0.068,0.203,0.118,0.422,0.173,0.64c2.476-0.143,4.962-0.198,7.458-0.206
				c-0.056-0.241-0.117-0.529-0.223-0.889c-1.957,1.174-9.33-5.27-10.473-6.371c1.42-1.086,5.256-5.482,5.401-6.755
				c0.294-2.588-5.118,0.954-7.31,1.724c-2.884,1.021-6.662,2.588-9.294,2.568c-1.423-0.01-2.163-0.815-3.623-0.744
				c-1.576,0.072-3.329,1.143-3.947,1.305l-0.857,0.852C150.604,368.124,154.633,369.317,157.902,368.992z"/>
			<path style="fill:#FFFFFF;" d="M153.942,355.532c-0.602,0.194,0.821-1.134,0.853-1.977c0.032-0.836-0.882-1.376-1.484-1.856
				c-1.104-0.879-2.6-1.692-3.588-2.758c-1.281-1.381-0.355-1.515,0.15-3.72c0.369-1.604-0.094-3.238-1.393-4.022
				c-1.613-0.976-3.903-0.277-2.602-2.671c0.769-1.413,2.738-2.898,3.605-4.464c2.463-4.434-2.936-3.873-2.742-7.158
				c0.093-1.553,2.801-3.857,4.646-4.996c0.281,1.153-0.791,3.272-0.237,4.209c0.746,1.259,2.951,1.338,3.754,2.684
				c1.93,3.238-1.956,6.271-3.724,9.969c-1.078,2.25,0.969,2.417,1.307,4.028c0.286,1.345-1.537,2.856-1.461,3.996
				c0.198,3.04,6.997,2.822,4.284,7.218c-0.249,0.41-0.891,1.103-1.117,1.338"/>
			<path style="fill:#FFFFFF;" d="M168.256,304.989c-3.079-0.318-9.475-5.813-14.237-1.985c0.696,1.129,2.712,0.904,3.388,1.976
				c-1.944,1.645-3.018-0.403-4.989,1.462c0.718,1.484,4.278,1.02,5.849,1.75c-1.107,0.91-2.347,1.313-3.527,1.98
				c2.305,1.77,0.209,2.154-1.326,4.561c-0.714,1.11-1.189,4.094,0.86,3.225c2.038-0.859,1.792-4.114,3.251-5.511
				c1.027-0.979,2.176-0.605,2.436-2.055c0.148-0.827-1.352-1.506-1.822-2.042c0.947-0.214,1.877-0.187,2.701-0.215
				c-0.24-1.008-0.826-1.867-1.713-2.531c1.229-0.817,8.627,4.252,11.033,0.706"/>
		</g>
		<g>
			<path style="fill:#A90F14;" d="M158.951,306.591c-3.843,4.581-6.101,8.023-6.101,8.023s4.024,6.92,4.59,7.893
				c5.072,8.721,23.006,7.75,40.06-2.167c17.055-9.92,26.77-25.023,21.697-33.743c-0.408-0.704-4.588-7.893-4.588-7.893
				s-4.004,0.197-9.818,1.232L158.951,306.591z"/>
			<path style="fill:#D0181F;" d="M151.613,310.858c0.174,1.343,0.568,2.605,1.237,3.755c5.071,8.723,23.005,7.751,40.06-2.168
				c17.055-9.916,26.77-25.023,21.699-33.742c-0.668-1.15-1.572-2.119-2.653-2.932L151.613,310.858z"/>
			<path style="fill:#EF3B24;" d="M167.879,301.4l-13.458,7.827c0.017,0.003,0.023,0.02,0.04,0.023
				C155.587,309.383,162.25,305.093,167.879,301.4z"/>
			<path style="fill:#EF3B24;" d="M208.484,277.787l-33.404,19.426c-3.99,3.398-19.395,14.141-19.445,15.781
				c-0.056,1.895,8.806,6.256,11.008,4.161c2.205-2.094,10.773-20.846,11.693-20.843c0.477,0.003-10.381,18.338-8.117,20.744
				c2.267,2.408,9.996-0.352,11.726-2.755c1.733-2.4,0.154-17.81,0.985-18.141c0.422-0.166-0.301,16.202,2.07,17.163
				c2.371,0.96,4.757-0.95,7.082-2.302c3.307-1.925,7.912-4.776,7.764-6.873c-0.146-2.095-13.465-9.39-13.465-9.39
				s16.036,6.164,19.039,4.532c2.996-1.635,6.908-9.124,5.639-10.845c-1.268-1.72-24.914,4.445-24.885,3.85
				c0.012-0.291,24.064-4.873,25.348-6.665c1.287-1.794-0.113-4.625-1.119-5.806C209.673,278.964,209.053,278.309,208.484,277.787z"
				/>
		</g>
		<g>
			<path style="fill:#A90F14;" d="M162.623,328.694c-5.785,1.5-9.624,2.993-9.624,2.993s-0.739,7.973-0.843,9.091
				c-0.931,10.042,14.237,19.662,33.883,21.483c19.643,1.818,36.319-4.846,37.25-14.891c0.076-0.813,0.845-9.091,0.845-9.091
				s-3.374-2.162-8.712-4.692L162.623,328.694z"/>
			<path style="fill:#D0181F;" d="M154.172,327.91c-0.64,1.191-1.049,2.454-1.173,3.777c-0.929,10.044,14.236,19.66,33.883,21.482
				c19.646,1.819,36.321-4.846,37.252-14.89c0.124-1.323-0.048-2.638-0.459-3.93L154.172,327.91z"/>
			<path style="fill:#EF3B24;" d="M172.908,329.647l-15.506-1.438c0.013,0.015,0.006,0.032,0.021,0.047
				C158.262,329.016,166.182,329.389,172.908,329.647z"/>
			<path style="fill:#EF3B24;" d="M219.678,333.98l-38.477-3.564c-5.221,0.451-24.002,0.261-24.994,1.568
				c-1.146,1.51,3.54,10.204,6.549,9.777c3.012-0.428,20.873-10.727,21.621-10.188c0.382,0.277-19.099,8.908-18.65,12.185
				c0.447,3.273,8.343,5.511,11.148,4.558c2.805-0.95,10.461-14.413,11.328-14.202c0.441,0.11-9.648,13.021-8.274,15.181
				c1.374,2.157,4.426,1.986,7.105,2.233c3.809,0.353,9.215,0.703,10.311-1.088c1.097-1.792-5.518-15.464-5.518-15.464
				s9.482,14.327,12.876,14.741c3.39,0.406,10.921-3.42,10.884-5.559c-0.035-2.138-22.867-10.842-22.498-11.309
				c0.178-0.227,22.426,9.998,24.512,9.281c2.088-0.714,2.588-3.832,2.461-5.373C219.961,335.628,219.84,334.733,219.678,333.98z"/>
		</g>
		<g>
			<path style="fill:#A90F14;" d="M231.549,268.402c-5.883,1.071-9.816,2.283-9.816,2.283s-1.319,7.897-1.504,9.004
				c-1.662,9.949,12.764,20.648,32.223,23.9c19.459,3.248,36.578-2.18,38.24-12.131c0.137-0.804,1.506-9.006,1.506-9.006
				s-3.211-2.402-8.346-5.315L231.549,268.402z"/>
			<path style="fill:#D0181F;" d="M223.178,267.004c-0.727,1.145-1.226,2.368-1.445,3.682c-1.661,9.948,12.763,20.646,32.223,23.899
				c19.457,3.248,36.578-2.185,38.242-12.132c0.217-1.311,0.143-2.633-0.176-3.949L223.178,267.004z"/>
			<path style="fill:#EF3B24;" d="M241.734,270.103l-15.357-2.566c0.013,0.014,0.006,0.033,0.018,0.048
				C227.174,268.404,235.047,269.353,241.734,270.103z"/>
			<path style="fill:#EF3B24;" d="M288.065,277.84l-38.111-6.367c-5.242,0.071-23.958-1.49-25.043-0.258
				c-1.254,1.422,2.783,10.436,5.818,10.231c3.032-0.21,21.6-9.177,22.307-8.586c0.359,0.307-19.698,7.491-19.491,10.792
				c0.208,3.297,7.919,6.105,10.786,5.361c2.867-0.743,11.485-13.613,12.335-13.336c0.431,0.142-10.573,12.279-9.36,14.534
				c1.211,2.251,4.268,2.304,6.922,2.743c3.772,0.633,9.138,1.377,10.364-0.331c1.224-1.706-4.374-15.825-4.374-15.825
				s8.409,14.982,11.762,15.636c3.352,0.66,11.143-2.608,11.266-4.744c0.119-2.135-22.016-12.479-21.615-12.918
				c0.193-0.216,21.636,11.607,23.77,11.044c2.133-0.561,2.864-3.632,2.844-5.183C288.228,279.504,288.173,278.603,288.065,277.84z"
				/>
		</g>
		<g>
			<path style="fill:#A90F14;" d="M291.109,317.561c-4.43,4.016-7.136,7.122-7.136,7.122s3.05,7.401,3.477,8.44
				c3.841,9.328,21.739,10.804,39.981,3.295c18.246-7.509,29.922-21.154,26.084-30.481c-0.31-0.755-3.477-8.445-3.477-8.445
				s-3.991-0.348-9.892-0.111L291.109,317.561z"/>
			<path style="fill:#D0181F;" d="M283.26,320.791c-0.012,1.356,0.211,2.658,0.714,3.893c3.841,9.325,21.74,10.799,39.985,3.292
				c18.243-7.507,29.918-21.155,26.08-30.483c-0.506-1.228-1.269-2.313-2.229-3.266L283.26,320.791z"/>
			<path style="fill:#EF3B24;" d="M300.658,313.631l-14.398,5.923c0.018,0.009,0.021,0.028,0.039,0.034
				C287.396,319.868,294.584,316.523,300.658,313.631z"/>
			<path style="fill:#EF3B24;" d="M344.098,295.755l-35.733,14.706c-4.417,2.825-21.136,11.374-21.409,12.994
				c-0.316,1.869,7.872,7.395,10.342,5.619c2.465-1.775,13.503-19.192,14.418-19.061c0.464,0.067-12.779,16.757-10.863,19.448
				c1.917,2.692,9.951,1.009,11.994-1.136c2.041-2.147,2.568-17.625,3.436-17.839c0.445-0.106-2.498,16.012-0.277,17.284
				c2.216,1.272,4.84-0.294,7.328-1.319c3.536-1.455,8.486-3.655,8.627-5.754c0.139-2.096-12.066-11.131-12.066-11.131
				s15.053,8.285,18.244,7.076c3.192-1.213,8.087-8.096,7.063-9.977c-1.025-1.878-25.285,1.02-25.179,0.431
				c0.052-0.283,24.504-1.558,26.02-3.159c1.516-1.603,0.513-4.595-0.318-5.9C345.11,297.08,344.59,296.346,344.098,295.755z"/>
		</g>
		<g>
			<path style="fill:#EF8A2F;" d="M374.719,369.891c0.414,13.522-221.402,20.295-221.816,6.776
				c-0.414-13.517,23.069-91.784,107.113-92.249C340.434,283.973,374.308,356.375,374.719,369.891z"/>
			<path style="fill:#DB7F2A;" d="M333.381,309.156c-9.672,20.261-30.34,38.824-46.314,46.189
				c-38.639,17.807-89.974,18.693-129.957,2.779c-3.049,8.532-4.305,15.355-4.207,18.543c0.414,13.518,222.23,6.745,221.816-6.776
				C374.467,361.627,361.666,331.341,333.381,309.156z"/>
			<path style="fill:#F1983D;" d="M322.936,311.059c-1.477,8.12-25.609,42.016-71.032,50.354c-32.138,5.9-80.25,0.527-78.773-7.591
				c1.479-8.119,11.3-47.317,60.377-62.846C257.572,283.363,324.416,302.939,322.936,311.059z"/>
		</g>
	</g>
</g>
</svg>
